<svg xmlns="http://www.w3.org/2000/svg" viewBox="0 0 82.65 82.66"><g id="Layer_2" data-name="Layer 2"><g id="Layer_1-2" data-name="Layer 1"><path d="M35.62,2.85A1.43,1.43,0,1,0,34.2,1.43,1.43,1.43,0,0,0,35.62,2.85Z"/><circle cx="24.22" cy="4.28" r="1.42"/><path d="M29.92,5.7a1.43,1.43,0,0,0,1.43-1.42V1.43a1.43,1.43,0,1,0-2.85,0V4.28A1.43,1.43,0,0,0,29.92,5.7Z"/><path d="M55.57,8.55A1.43,1.43,0,0,1,57,10a1.43,1.43,0,0,0,2.85,0V7.12A1.43,1.43,0,0,0,58.42,5.7H55.57a1.43,1.43,0,0,0,0,2.85Z"/><path d="M35.62,11.4A1.43,1.43,0,0,0,37.05,10a1.43,1.43,0,0,1,1.42-1.43A1.43,1.43,0,0,0,39.9,7.12,1.43,1.43,0,0,1,41.32,5.7h11.4a1.43,1.43,0,1,0,0-2.85H38.47a1.43,1.43,0,0,0-1.42,1.43A1.43,1.43,0,0,1,35.62,5.7,1.43,1.43,0,0,0,34.2,7.12V10A1.43,1.43,0,0,0,35.62,11.4Z"/><path d="M52.72,8.55H44.17a1.43,1.43,0,0,0,0,2.85h8.55a1.43,1.43,0,1,0,0-2.85Z"/><path d="M32.77,17.1a1.43,1.43,0,0,1,1.43,1.43,1.43,1.43,0,0,0,2.85,0,1.43,1.43,0,1,1,2.85,0,1.43,1.43,0,0,0,2.85,0V15.68a1.43,1.43,0,0,0-1.43-1.43H32.77a1.43,1.43,0,0,0,0,2.85Z"/><path d="M51.3,15.68a1.43,1.43,0,1,0-1.42,1.42A1.43,1.43,0,0,0,51.3,15.68Z"/><path d="M55.57,17.1A1.43,1.43,0,0,0,57,15.68V12.83a1.43,1.43,0,1,0-2.85,0v2.85A1.43,1.43,0,0,0,55.57,17.1Z"/><path d="M24.22,20a1.43,1.43,0,0,0,1.43-1.42,1.43,1.43,0,0,1,1.42-1.43,1.43,1.43,0,0,0,1.43-1.42V12.83a1.43,1.43,0,0,1,1.42-1.43,1.43,1.43,0,1,0,0-2.85h-5.7a1.43,1.43,0,0,0,0,2.85,1.43,1.43,0,1,1,0,2.85,1.43,1.43,0,0,0-1.42,1.43v2.85A1.43,1.43,0,0,0,24.22,20Z"/><circle cx="52.72" cy="18.53" r="1.42"/><path d="M47,22.8a1.43,1.43,0,0,0,1.43-1.42V18.53a1.43,1.43,0,1,0-2.85,0v2.85A1.43,1.43,0,0,0,47,22.8Z"/><path d="M1.42,25.65a1.43,1.43,0,0,1,1.43,1.43,1.43,1.43,0,0,0,2.85,0,1.43,1.43,0,0,1,1.42-1.43h5.7a1.43,1.43,0,1,0,0-2.85H1.42a1.43,1.43,0,0,0,0,2.85Z"/><path d="M18.52,22.8a1.43,1.43,0,0,0,0,2.85h8.55a1.43,1.43,0,0,0,1.43-1.42,1.43,1.43,0,1,1,2.85,0,1.43,1.43,0,0,0,2.85,0V21.38A1.43,1.43,0,0,0,32.77,20a1.43,1.43,0,0,1-1.42-1.42,1.43,1.43,0,1,0-2.85,0A1.43,1.43,0,0,1,27.07,20a1.43,1.43,0,0,0-1.42,1.43,1.43,1.43,0,0,1-1.43,1.42h-5.7Z"/><circle cx="72.67" cy="24.23" r="1.42"/><path d="M79.8,24.23a1.43,1.43,0,1,0-1.42,1.42A1.43,1.43,0,0,0,79.8,24.23Z"/><circle cx="15.67" cy="27.08" r="1.42"/><path d="M35.62,25.65a1.43,1.43,0,1,0,1.43,1.43A1.43,1.43,0,0,0,35.62,25.65Z"/><path d="M57,27.08a1.43,1.43,0,1,0-2.85,0v5.7a1.43,1.43,0,0,0,1.42,1.42h2.85a1.43,1.43,0,1,0,0-2.85A1.43,1.43,0,0,1,57,29.93V27.08Z"/><circle cx="81.22" cy="27.08" r="1.42"/><path d="M8.55,29.93A1.43,1.43,0,1,0,10,28.5,1.43,1.43,0,0,0,8.55,29.93Z"/><path d="M18.52,31.35h2.86a1.43,1.43,0,0,0,0-2.85H18.52a1.43,1.43,0,0,0,0,2.85Z"/><path d="M31.35,29.93V27.08a1.43,1.43,0,1,0-2.85,0v2.85a1.43,1.43,0,0,0,2.85,0Z"/><path d="M38.47,28.5a1.43,1.43,0,1,0,1.43,1.43A1.43,1.43,0,0,0,38.47,28.5Z"/><path d="M14.25,34.2v1.42a1.43,1.43,0,0,0,1.42,1.43h2.85a1.43,1.43,0,1,1,0,2.85,1.43,1.43,0,0,0,0,2.85h5.7a1.43,1.43,0,0,0,1.43-1.42V38.48a1.43,1.43,0,0,0-1.43-1.43,1.43,1.43,0,0,1-1.42-1.43,1.43,1.43,0,0,0-1.42-1.42H18.52a1.43,1.43,0,0,1-1.42-1.42,1.43,1.43,0,1,0-2.85,0Z"/><path d="M34.2,34.2v1.42a1.43,1.43,0,0,0,1.42,1.43h2.85a1.43,1.43,0,1,0,0-2.85,1.43,1.43,0,0,1-1.42-1.42,1.43,1.43,0,1,0-2.85,0Z"/><path d="M41.32,31.35a1.43,1.43,0,1,0,1.43,1.43A1.43,1.43,0,0,0,41.32,31.35Z"/><path d="M81.22,31.35a1.43,1.43,0,0,1-1.42-1.42,1.43,1.43,0,0,0-1.42-1.43H72.67a1.43,1.43,0,0,0,0,2.85h2.85A1.43,1.43,0,0,1,77,32.78a1.43,1.43,0,0,0,1.43,1.42h2.84a1.43,1.43,0,1,0,0-2.85Z"/><path d="M27.07,34.2a1.43,1.43,0,0,0,0,2.85h2.85a1.43,1.43,0,1,0,0-2.85H27.07Z"/><path d="M1.42,39.9H4.27A1.43,1.43,0,0,0,5.7,38.48a1.43,1.43,0,0,1,1.42-1.43H10a1.43,1.43,0,1,0,0-2.85,1.43,1.43,0,0,1-1.42-1.42,1.43,1.43,0,1,0-2.85,0A1.43,1.43,0,0,1,4.27,34.2H1.42A1.43,1.43,0,0,0,0,35.62v2.86A1.43,1.43,0,0,0,1.42,39.9Z"/><path d="M12.82,39.9a1.43,1.43,0,1,0-1.42-1.42A1.43,1.43,0,0,0,12.82,39.9Z"/><path d="M41.32,37.05a1.43,1.43,0,1,0,1.43,1.43A1.43,1.43,0,0,0,41.32,37.05Z"/><path d="M52.72,39.9a1.43,1.43,0,0,0,1.43-1.42V35.62a1.43,1.43,0,0,0-1.43-1.42H49.88a1.43,1.43,0,1,1,0-2.85,1.43,1.43,0,0,0,0-2.85H47a1.43,1.43,0,0,1-1.42-1.42V24.23a1.43,1.43,0,0,0-1.43-1.43h-5.7a1.43,1.43,0,0,0,0,2.85,1.43,1.43,0,0,1,1.43,1.43,1.43,1.43,0,0,0,1.42,1.42,1.43,1.43,0,0,1,1.43,1.43,1.43,1.43,0,0,0,1.42,1.42,1.43,1.43,0,1,1,0,2.85,1.43,1.43,0,0,0,0,2.85h5.71a1.43,1.43,0,0,1,1.42,1.43A1.43,1.43,0,0,0,52.72,39.9Z"/><path d="M64.12,37.05a1.43,1.43,0,1,0,1.43,1.43A1.43,1.43,0,0,0,64.12,37.05Z"/><path d="M49.88,39.9H44.17a1.43,1.43,0,0,0,0,2.85h5.71a1.43,1.43,0,0,0,0-2.85Z"/><circle cx="66.97" cy="41.33" r="1.42"/><path d="M81.22,39.9a1.43,1.43,0,1,0,0-2.85H78.38A1.43,1.43,0,0,0,77,38.48a1.43,1.43,0,0,1-2.85,0V35.62a1.43,1.43,0,0,0-1.43-1.42,1.43,1.43,0,0,1-1.42-1.42,1.43,1.43,0,0,0-1.43-1.43,1.43,1.43,0,0,1,0-2.85,1.43,1.43,0,1,0,0-2.85,1.43,1.43,0,0,1-1.42-1.42,1.43,1.43,0,1,0-2.85,0,1.43,1.43,0,0,1-2.85,0,1.43,1.43,0,0,0-1.43-1.43,1.43,1.43,0,0,1-1.42-1.42V18.53a1.43,1.43,0,1,0-2.85,0A1.43,1.43,0,0,1,55.57,20a1.43,1.43,0,0,0,0,2.85A1.43,1.43,0,0,1,57,24.23a1.43,1.43,0,0,0,1.42,1.42,1.43,1.43,0,0,1,1.43,1.43,1.43,1.43,0,0,0,1.42,1.42h2.85a1.43,1.43,0,1,1,0,2.85,1.43,1.43,0,0,0,0,2.85H67a1.43,1.43,0,0,1,1.43,1.42,1.43,1.43,0,0,0,1.42,1.43,1.43,1.43,0,0,1,1.43,1.43v2.85a1.43,1.43,0,0,0,1.42,1.42h2.85A1.43,1.43,0,0,1,77,44.18a1.43,1.43,0,0,0,1.43,1.42h2.84a1.43,1.43,0,1,0,0-2.85,1.43,1.43,0,0,1,0-2.85Z"/><path d="M1.42,45.6A1.43,1.43,0,1,0,0,44.18,1.43,1.43,0,0,0,1.42,45.6Z"/><path d="M7.12,45.6a1.43,1.43,0,0,0,1.43-1.42A1.43,1.43,0,0,1,10,42.75a1.43,1.43,0,1,0,0-2.85H7.12A1.43,1.43,0,0,0,5.7,41.33v2.85A1.43,1.43,0,0,0,7.12,45.6Z"/><path d="M64.12,45.6a1.43,1.43,0,1,0-1.42-1.42A1.43,1.43,0,0,0,64.12,45.6Z"/><path d="M69.82,42.75a1.43,1.43,0,1,0,1.43,1.43A1.43,1.43,0,0,0,69.82,42.75Z"/><path d="M32.77,48.45A1.43,1.43,0,0,0,34.2,47V44.18a1.43,1.43,0,0,1,1.42-1.43h2.85a1.43,1.43,0,1,0,0-2.85h-5.7a1.43,1.43,0,0,0-1.42,1.43,1.43,1.43,0,0,1-1.43,1.42,1.43,1.43,0,0,0,0,2.85A1.43,1.43,0,0,1,31.35,47,1.43,1.43,0,0,0,32.77,48.45Z"/><path d="M55.57,48.45a1.43,1.43,0,0,0,0,2.85h5.7a1.43,1.43,0,1,0,0-2.85A1.43,1.43,0,0,1,59.85,47v-5.7a1.43,1.43,0,1,0-2.85,0,1.43,1.43,0,0,1-1.43,1.42,1.43,1.43,0,0,0,0,2.85,1.43,1.43,0,1,1,0,2.85Z"/><circle cx="66.97" cy="47.03" r="1.42"/><path d="M18.52,48.45h5.7a1.43,1.43,0,1,0,0-2.85H15.67A1.43,1.43,0,0,0,14.25,47a1.43,1.43,0,0,1-2.85,0,1.43,1.43,0,1,0-2.85,0v2.85A1.43,1.43,0,0,0,10,51.3a1.43,1.43,0,1,1,0,2.85H7.12A1.43,1.43,0,0,0,5.7,55.58v2.85a1.43,1.43,0,0,0,2.85,0A1.43,1.43,0,0,1,10,57h2.85a1.43,1.43,0,0,0,1.43-1.42,1.43,1.43,0,0,1,1.42-1.43h2.85a1.43,1.43,0,1,0,0-2.85,1.43,1.43,0,0,1,0-2.85Z"/><path d="M34.2,49.88a1.43,1.43,0,1,0,1.42-1.43A1.43,1.43,0,0,0,34.2,49.88Z"/><path d="M44.17,48.45h5.71a1.43,1.43,0,0,0,0-2.85H44.17a1.43,1.43,0,0,1-1.42-1.42,1.43,1.43,0,1,0-2.85,0v5.7a1.43,1.43,0,0,1-1.43,1.42,1.43,1.43,0,0,0-1.42,1.43,1.43,1.43,0,0,1-1.43,1.42,1.43,1.43,0,0,0-1.42,1.43v2.85a1.43,1.43,0,0,0,2.85,0A1.43,1.43,0,0,1,38.47,57a1.43,1.43,0,0,0,1.43-1.42,1.43,1.43,0,0,1,1.42-1.43h2.85a1.43,1.43,0,0,1,1.43,1.43,1.43,1.43,0,0,0,2.85,0,1.43,1.43,0,0,1,1.43-1.43,1.43,1.43,0,0,0,0-2.85H44.17a1.43,1.43,0,0,1,0-2.85Z"/><path d="M71.25,49.88a1.43,1.43,0,0,0,2.85,0V47a1.43,1.43,0,1,0-2.85,0v2.85Z"/><path d="M81.22,48.45H78.38A1.43,1.43,0,0,0,77,49.88a1.43,1.43,0,0,1-1.43,1.42,1.43,1.43,0,0,0,0,2.85A1.43,1.43,0,0,1,77,55.58v5.7a1.43,1.43,0,0,0,2.85,0V58.43A1.43,1.43,0,0,1,81.22,57a1.43,1.43,0,0,0,1.43-1.42v-5.7A1.43,1.43,0,0,0,81.22,48.45Z"/><path d="M29.92,51.3a1.43,1.43,0,1,0,0-2.85H27.07a1.43,1.43,0,0,0-1.42,1.43,1.43,1.43,0,0,1-1.43,1.42,1.43,1.43,0,0,0,0,2.85,1.43,1.43,0,0,1,1.43,1.43A1.43,1.43,0,0,0,27.07,57a1.43,1.43,0,0,1,1.43,1.43,1.43,1.43,0,0,0,2.85,0V55.58a1.43,1.43,0,0,0-1.43-1.43,1.43,1.43,0,0,1,0-2.85Z"/><path d="M1.42,59.85a1.43,1.43,0,0,0,1.43-1.42v-5.7A1.43,1.43,0,0,1,4.27,51.3a1.43,1.43,0,1,0,0-2.85H1.42A1.43,1.43,0,0,0,0,49.88v8.55A1.43,1.43,0,0,0,1.42,59.85Z"/><path d="M22.8,57V55.58a1.43,1.43,0,1,0-2.85,0A1.43,1.43,0,0,1,18.52,57H15.67a1.43,1.43,0,0,0,0,2.85h5.71a1.43,1.43,0,0,0,1.42-1.42Z"/><path d="M44.17,57H41.32a1.43,1.43,0,0,0,0,2.85h2.85a1.43,1.43,0,1,0,0-2.85Z"/><path d="M27.07,59.85H24.22a1.43,1.43,0,0,0-1.42,1.43v2.84a1.43,1.43,0,0,0,1.42,1.43A1.43,1.43,0,0,1,25.65,67a1.43,1.43,0,0,0,2.85,0v-5.7A1.43,1.43,0,0,0,27.07,59.85Z"/><path d="M64.12,62.7a1.43,1.43,0,1,0,1.43,1.42A1.43,1.43,0,0,0,64.12,62.7Z"/><path d="M75.52,65.55a1.43,1.43,0,1,0-1.42-1.43A1.43,1.43,0,0,0,75.52,65.55Z"/><path d="M81.22,65.55H78.38A1.43,1.43,0,0,0,77,67a1.43,1.43,0,0,1-1.43,1.42,1.43,1.43,0,0,0,0,2.85h5.7a1.43,1.43,0,0,0,1.43-1.42V67A1.43,1.43,0,0,0,81.22,65.55Z"/><path d="M72.67,71.25a1.43,1.43,0,1,0,1.43,1.43A1.43,1.43,0,0,0,72.67,71.25Z"/><path d="M27.07,74.1a1.43,1.43,0,0,1-1.42-1.42V69.83a1.43,1.43,0,1,0-2.85,0v11.4a1.43,1.43,0,0,0,2.85,0V78.38A1.43,1.43,0,0,1,27.07,77a1.43,1.43,0,1,0,0-2.85Z"/><path d="M55.57,74.1A1.43,1.43,0,1,0,57,75.53,1.43,1.43,0,0,0,55.57,74.1Z"/><path d="M78.38,74.1H75.52a1.43,1.43,0,0,0,0,2.85h2.86a1.43,1.43,0,0,0,0-2.85Z"/><path d="M29.92,77a1.43,1.43,0,0,0-1.42,1.43v2.85a1.43,1.43,0,0,0,2.85,0V78.38A1.43,1.43,0,0,0,29.92,77Z"/><path d="M52.72,77a1.43,1.43,0,1,0,1.43,1.43A1.43,1.43,0,0,0,52.72,77Z"/><path d="M72.67,77a1.43,1.43,0,1,0,1.43,1.43A1.43,1.43,0,0,0,72.67,77Z"/><path d="M81.22,77a1.43,1.43,0,1,0,1.43,1.43A1.43,1.43,0,0,0,81.22,77Z"/><path d="M49.88,79.8H44.17a1.43,1.43,0,0,1,0-2.85h5.71a1.43,1.43,0,0,0,0-2.85H47a1.43,1.43,0,0,1-1.42-1.42V69.83a1.43,1.43,0,1,0-2.85,0v2.85a1.43,1.43,0,0,1-1.43,1.42H38.47a1.43,1.43,0,0,1-1.42-1.42V69.83a1.43,1.43,0,0,0-1.43-1.43A1.43,1.43,0,1,1,37.05,67a1.43,1.43,0,0,0,1.42,1.42h2.85A1.43,1.43,0,0,0,42.75,67a1.43,1.43,0,0,1,1.42-1.43h5.71a1.43,1.43,0,0,0,0-2.85H32.77a1.43,1.43,0,0,0-1.42,1.42v5.71a1.43,1.43,0,0,0,1.42,1.42,1.43,1.43,0,0,1,1.43,1.43v8.55a1.43,1.43,0,0,0,1.42,1.42H49.88a1.43,1.43,0,0,0,0-2.85ZM37.05,78.38a1.43,1.43,0,1,1,1.42,1.42A1.43,1.43,0,0,1,37.05,78.38Z"/><path d="M69.82,79.8a1.43,1.43,0,0,1,0-2.85,1.43,1.43,0,1,0,0-2.85,1.43,1.43,0,0,1,0-2.85,1.43,1.43,0,0,0,1.43-1.42,1.43,1.43,0,0,1,1.42-1.43,1.43,1.43,0,1,0,0-2.85,1.43,1.43,0,0,1,0-2.85,1.43,1.43,0,0,0,1.43-1.42v-5.7a1.43,1.43,0,0,0-1.43-1.43H64.12a1.43,1.43,0,0,0-1.42,1.43,1.43,1.43,0,0,1-2.85,0,1.43,1.43,0,0,0-1.43-1.43H55.57a1.43,1.43,0,0,0,0,2.85,1.43,1.43,0,1,1-1.42,1.43A1.43,1.43,0,0,0,52.72,57H49.88a1.43,1.43,0,1,0,0,2.85,1.43,1.43,0,0,1,1.42,1.43,1.43,1.43,0,0,0,1.42,1.42,1.43,1.43,0,0,1,1.43,1.42,1.43,1.43,0,0,0,1.42,1.43,1.43,1.43,0,1,1,0,2.85H49.88a1.43,1.43,0,1,0,0,2.85,1.43,1.43,0,0,1,1.42,1.43,1.43,1.43,0,0,0,2.85,0,1.43,1.43,0,1,1,2.85,0,1.43,1.43,0,0,0,1.42,1.42h2.85a1.43,1.43,0,0,0,1.43-1.42,1.43,1.43,0,1,1,1.42,1.42,1.43,1.43,0,0,0,0,2.85,1.43,1.43,0,1,1,0,2.85,1.43,1.43,0,0,0,0,2.85h5.7a1.43,1.43,0,1,0,0-2.85ZM62.7,68.4H61.27A1.43,1.43,0,0,1,59.85,67v-5.7a1.43,1.43,0,0,1,1.42-1.43H67a1.43,1.43,0,0,1,1.43,1.43V67A1.43,1.43,0,0,1,67,68.4H62.7Z"/><circle cx="75.52" cy="81.23" r="1.42"/><path d="M6,20h8a6,6,0,0,0,6-6V6a6,6,0,0,0-6-6H6A6,6,0,0,0,0,6v8A6,6,0,0,0,6,20ZM2.85,6.9A4,4,0,0,1,6.9,2.85h6.15A4,4,0,0,1,17.1,6.9v6.15a4,4,0,0,1-4.05,4.05H6.9a4,4,0,0,1-4.05-4.05Z"/><path d="M8.05,14.25H12a2.33,2.33,0,0,0,2.3-2.3V8.05A2.29,2.29,0,0,0,12,5.75H8.05a2.29,2.29,0,0,0-2.3,2.3V12A2.29,2.29,0,0,0,8.05,14.25Z"/><path d="M76.65,0h-8a6,6,0,0,0-6,6v8a6,6,0,0,0,6,6h8a6,6,0,0,0,6-6V6A6,6,0,0,0,76.65,0ZM79.8,13.05a4,4,0,0,1-4,4.05H69.6a4,4,0,0,1-4-4.05V6.9a4,4,0,0,1,4-4.05h6.15a4,4,0,0,1,4,4.05Z"/><path d="M74.65,5.75h-3.9a2.29,2.29,0,0,0-2.3,2.3V12a2.29,2.29,0,0,0,2.3,2.3h3.9A2.33,2.33,0,0,0,77,12V8.05A2.29,2.29,0,0,0,74.65,5.75Z"/><path d="M14,62.71H6a6,6,0,0,0-6,6v8a6,6,0,0,0,6,6h8a6,6,0,0,0,6-6v-8A6,6,0,0,0,14,62.71ZM17.1,75.76a4,4,0,0,1-4.05,4H6.9a4,4,0,0,1-4.05-4V69.61a4,4,0,0,1,4.05-4h6.15a4,4,0,0,1,4.05,4Z"/><path d="M12,68.46H8.05a2.29,2.29,0,0,0-2.3,2.3v3.9A2.29,2.29,0,0,0,8.05,77H12a2.33,2.33,0,0,0,2.3-2.3v-3.9A2.29,2.29,0,0,0,12,68.46Z"/></g></g></svg>