<?xml version="1.0" encoding="utf-8"?>
<!-- Generator: Adobe Illustrator 25.4.1, SVG Export Plug-In . SVG Version: 6.00 Build 0)  -->
<svg version="1.1" id="Layer_1" xmlns="http://www.w3.org/2000/svg" xmlns:xlink="http://www.w3.org/1999/xlink" x="0px" y="0px"
	 viewBox="0 0 300 300" style="enable-background:new 0 0 300 300;" xml:space="preserve">
<style type="text/css">
	.st0{fill:#FFFFFF;}
</style>
<path class="st0" d="M285,300H15c-8.3,0-15-6.7-15-15V15C0,6.7,6.7,0,15,0h270c8.3,0,15,6.7,15,15v270C300,293.3,293.3,300,285,300z
	"/>
<g>
	<rect x="89.2" y="24" width="9.4" height="9.4"/>
	<polygon points="117.3,24.1 117.3,24 117.3,14.7 107.9,14.7 107.9,24 107.9,24.1 107.9,33.4 117.3,33.4 	"/>
	<rect x="247.9" y="89.2" width="9.4" height="9.4"/>
	<rect x="266.5" y="89.2" width="9.4" height="9.4"/>
	<path d="M285.3,108v-9.4h-9.4v9.3h-9.4h-9.3h-0.1h-9.3v-9.3h-9.3v-9.4h-9.4v9.4h-9.3v-9.4h-9.4V80v-9.4h-9.3v-9.2v-0.1V52h9.3v-9.4
		v-9.4h-9.3h-0.1H192V24h-9.4h-9.3h-0.1H164h-9.4h-9.3h-0.1H136v-9.3h-9.4v9.4h9.3v9.2h-9.3v9.4V52h9.4v-9.4h9.3v-9.3h9.3h9.4h9.3
		h0.1h9.3h9.3v9.3h-9.3h-9.3h-0.1H164h-9.4V52h9.4h9.3h0.1h9.3h9.3v9.3v0.1v9.2h-9.3v-9.3h-9.4v9.3H164V80v9.3h-9.4h-9.3h-0.1h-9.3
		v9.4h-9.3v9.4h9.3v9.3h-9.3v9.4v9.4h9.3h0.1h9.2v9.2H136h-0.1h-9.3h-9.4v9.4h-9.4v9.4h9.4v9.3H108h-0.1h-9.3V164h-9.3h-0.1H80h-9.3
		h-0.1h-9.3v9.3H52V164h-9.4v9.3v0.1v9.3H52v9.3h-9.4h-9.4v9.3v0.1v9.3h9.4v-9.3H52h9.3v9.3h9.3h0.1H80h9.3v9.4v9.4h9.4v9.2h-9.4
		v9.4v9.3v0.1v9.3v9.4v9.4h9.4v-9.4v-9.4h9.3v9.4v9.4h9.4v-9.4v-9.4H108v-9.4h-9.4v-9.3v-9.3h9.4v-9.3v-0.1v-9.3v-9.4h9.3v-9.3v-0.1
		v-9.3H108v-9.3h9.3v-9.3h9.4v9.3h9.3v9.3h-9.3v9.3v0.1v9.3h9.4v-9.3h9.2v9.3h9.4h9.4v-9.3h9.3v9.3h9.4v9.4h9.3v9.4h9.3v9.2H192
		h-0.1h-9.3h-9.4v9.4h9.4v9.3h-9.3h-0.1H164v-9.3v-9.4h-9.4v-9.2h9.4h9.3h0.1h9.3v-9.4h-9.3h-0.1H164h-9.4h-9.3h-0.1H136h-0.1h-9.3
		h-9.4v9.3v0.1v9.2v0.1v9.3h9.4v9.3v0.1v9.3v9.4v9.4h9.3h0.1h9.2h0.1h9.3h9.4h9.3h0.1h9.3v-9.4h-9.3h-0.1H164h-9.4v-9.4h9.4h9.3h0.1
		h9.3v-9.3h9.3v9.3h-9.3v9.4h9.4v-9.4h9.3v-9.3h9.3h9.4v9.3h9.3v9.4h-9.3v9.4h9.3h0.1h9.2h0.1h9.3v-9.4h-9.3v-9.4h9.3v-9.3h9.3v9.3
		h-9.3v9.4h9.3v9.4h9.4v-9.4h-9.3v-9.4h9.3h9.4v-9.4h-9.4h-9.3v-9.3h9.3h9.4h9.4v-9.3v-0.1v-9.3h-9.4h-9.4v-9.3h-9.3v-9.4v-9.3v-0.1
		V192h9.3v9.2v0.1v9.3v9.4h9.4v-9.4v-9.3h9.4V192v-0.1v-9.3l0,0v-9.4h-9.4h-9.4v9.4h-9.3v-9.3v-0.1V164h-9.4v9.3v0.1v9.3h9.3v9.3
		h-9.3h-9.3h-0.1h-9.2h-0.1h-9.3v9.3h-9.4v-9.3h-9.3h-0.1h-9.3v9.3h-9.3h-9.3V192h9.3v-9.4h-9.3h-0.1H164h-9.4v-9.3h9.4h9.3h0.1h9.3
		V164h-9.3h-0.1H164h-9.4v-9.4h-9.3v-9.3h9.3v9.3h9.4h9.3h0.1h9.3v-9.3h9.4V136v-0.1v-9.3h9.2h0.1h9.3v-9.4h-9.3V108v-0.1v-9.3h9.3
		v9.4h9.4h9.3v9.3h-9.3v9.4h9.3h0.1h9.2v9.4h9.4v9.2v0.1v9.3h9.3h0.1h9.3v9.4h9.4h9.4v-9.4h-9.4v-9.3h9.4v-9.4h-9.4h-9.4v9.3h-9.3
		V136v-0.1v-9.3h-9.4v-9.4h-9.3V108h9.3v9.3h9.3h0.1h9.3v9.4h9.4h9.4v-9.4h-9.4V108H285.3z M192,42.7h9.2V52H192V42.7z M80,173.3
		h9.3h0.1h9.3v9.3h-9.4v9.3H80v-9.3h-9.3v-9.3H80z M70.7,201.2L70.7,201.2h-9.3V192h9.2h0.1H80v9.2H70.7z M98.6,210.5h-9.3v-9.3
		v-0.1V192h9.3v9.3h9.3v9.3H98.6z M126.7,229.3h9.3v9.2h-9.3V229.3z M136,275.9v-9.4h9.2v9.4H136z M145.3,257.1L145.3,257.1H136
		v-9.3v-9.3h9.2h0.1h9.3v9.3v9.3H145.3z M201.2,247.9v9.3H192v-9.3H201.2z M219.9,257.1v-9.3h9.3v9.3H219.9z M247.9,247.9v9.3h-9.3
		v-9.3H247.9v-9.3h9.3v9.3H247.9z M266.5,229.3v9.2h-9.3v-9.2H266.5z M257.1,229.2h-9.3v-9.3h9.3V229.2z M219.9,210.5h9.3h0.1h9.2
		v9.4v9.3v0.1v9.2h-9.2h-0.1h-9.3h-9.4v-9.2v-0.1v-9.3v-9.4H219.9z M201.2,210.5H192v-9.3h9.2V210.5z M192,70.7h9.2V80H192V70.7z
		 M145.2,98.6v9.3H136v-9.3H145.2z M136,117.3h9.2v9.4H136V117.3z M164,192v9.2h-9.4h-9.3V192h9.3H164z M145.2,164v9.3v0.1v9.3H136
		v-9.4h-9.4V164v-9.4h9.3h0.1h9.2V164z M145.3,135.9v-9.3h9.3v-9.4h-9.3V108h9.3v9.3h9.4v9.4h-9.4v9.3H145.3z M182.6,145.2h-9.3
		h-0.1H164h-9.4V136h9.4h9.3h0.1h9.3V145.2z M191.9,98.6v9.3v0.1v9.3v9.4h-9.3h-9.3v-9.4h9.3v-9.4h-9.3h-0.1H164v-9.3v-9.3h9.4V80
		v-9.3h9.3V80h9.3v9.4h9.3v9.3H191.9z"/>
	<rect x="42.7" y="107.9" width="9.4" height="9.4"/>
	<path d="M52,154.6v-9.3h9.4V136h9.2h0.1H80v9.2h-9.4v9.4H80h9.3h0.1h9.3v-9.3v-0.1V136h9.3h0.1h9.3v-9.4H108h-0.1h-9.3v9.3h-9.3
		v-9.3H80h-9.3v-9.4H80h9.4v-9.4H80h-9.3v-9.3H80h9.3h0.1h9.3h9.3v9.3v0.1v9.3h9.4V108v-0.1v-9.3H108v-9.3h9.3v9.3h9.4v-9.3v-0.1V80
		h-9.4v-9.3h9.4V80h9.4v-9.3h9.2V80h9.4v-9.3v-0.1v-9.3h-9.3h-0.1H136h-0.1h-9.3h-9.4v9.3H108v-9.2v-0.1V52h9.3v-9.4H108h-0.1h-9.3
		h-9.4V52h9.4v9.3h-9.4v9.3v0.1V80h9.4v-9.3h9.3V80h-9.3v9.3h-9.3h-0.1H80h-9.4v9.4h-9.2v-9.4H52h-9.4h-9.3h-0.1h-9.2H24h-9.3v9.4
		H24v9.4h9.4v-9.4h9.3H52h9.3v9.4h9.3v9.3h-9.3v9.4v9.3H52v-9.3h-9.4v-9.4h-9.4v9.4h-9.2H24h-9.3v9.3v0.1v9.3H24h0.1h9.2v9.3v9.4
		h9.4v-9.4L52,154.6L52,154.6z M33.4,145.2V136h9.3H52v9.2h-9.4H33.4z"/>
	<path d="M238.6,145.2h-9.3v-9.3h-9.4v9.4h9.3v9.3h-9.3v9.4h9.3v9.4h9.4V164h9.3v-9.4h-9.3V145.2z M238.5,164h-9.2v-9.4h9.2V164z"/>
	<rect x="14.7" y="154.6" width="9.4" height="9.4"/>
	<polygon points="210.5,164 210.5,154.6 210.5,145.2 201.2,145.2 201.2,154.6 191.9,154.6 191.9,164 201.2,164 201.2,173.2 
		191.9,173.2 191.9,182.6 201.2,182.6 201.3,182.6 210.5,182.6 219.9,182.6 219.9,173.2 210.5,173.2 	"/>
	<polygon points="24.1,201.3 24.1,201.2 24.1,192 24.1,191.9 24.1,182.6 33.4,182.6 33.4,173.2 24.1,173.2 24,173.2 14.7,173.2 
		14.7,182.6 14.7,182.6 14.7,191.9 14.7,192 14.7,201.2 14.7,201.3 14.7,210.5 24.1,210.5 	"/>
	<rect x="219.9" y="219.9" width="9.4" height="9.4"/>
	<rect x="275.9" y="266.5" width="9.4" height="9.4"/>
	<path d="M16.7,80H78c1.1,0,2-0.9,2-2v-7.3v-9.4V52v-9.3v-9.5V24v-7.3c0-1.1-0.9-2-2-2c0-0.1-61.3-0.1-61.3-0.1c-1.1,0-2,0.9-2,2
		v7.3v9.4v9.3v9.3v9.3v9.4V78C14.7,79.1,15.6,80,16.7,80z M24,61.1v-9.3v-9.3v-9.3v-8.2c0-0.7,0.5-1.1,1.1-1.1h44.4
		c0.7,0,1.1,0.5,1.1,1.1v8.2v9.3v9.3v9.3v8.2c0,0.7-0.5,1.1-1.1,1.1H25.1c-0.7,0-1.1-0.5-1.1-1.1V61.1z"/>
	<path d="M35.3,61.2h24c1.1,0,2-0.9,2-2v-7.3v-9.3v-7.3c0-1.1-0.9-2-2-2h-24c-1.1,0-2,0.9-2,2v7.3v9.3v7.3
		C33.4,60.3,34.3,61.2,35.3,61.2z"/>
	<path d="M221.9,80h61.3c1.1,0,2-0.9,2-2v-7.3v-9.4V52v-9.3v-9.5V24v-7.3c0-1.1-0.9-2-2-2c0-0.1-61.3-0.1-61.3-0.1c-1.1,0-2,0.9-2,2
		v7.3v9.4v9.3v9.3v9.3v9.4V78C219.9,79.1,220.8,80,221.9,80z M229.3,61.1v-9.3v-9.3v-9.3v-8.2c0-0.7,0.5-1.1,1.1-1.1h44.4
		c0.7,0,1.1,0.5,1.1,1.1v8.2v9.3v9.3v9.3v8.2c0,0.7-0.5,1.1-1.1,1.1h-44.4c-0.7,0-1.1-0.5-1.1-1.1V61.1z"/>
	<path d="M240.5,61.2h24c1.1,0,2-0.9,2-2v-7.3v-9.3v-7.3c0-1.1-0.9-2-2-2h-24c-1.1,0-2,0.9-2,2v7.3v9.3v7.3
		C238.6,60.3,239.5,61.2,240.5,61.2z"/>
	<path d="M78,219.8H16.7c-1.1,0-2,0.9-2,2v7.3v9.3v9.4v9.4v9.3v9.4v7.3c0,1.1,0.9,2,2,2H78c1.1,0,2-0.9,2-2v-7.3v-9.4v-9.3v-9.4
		v-9.4v-9.3v-7.3C80,220.7,79.1,219.8,78,219.8z M70.6,238.5v9.4v9.4v9.3v8.2c0,0.7-0.5,1.1-1.1,1.1H25.1c-0.7,0-1.1-0.5-1.1-1.1
		v-8.2v-9.3v-9.4v-9.4v-8.2c0-0.7,0.5-1.1,1.1-1.1h44.4c0.7,0,1.1,0.5,1.1,1.1V238.5z"/>
	<path d="M59.3,238.6h-24c-1.1,0-2,0.9-2,2v7.3v9.4v7.3c0,1.1,0.9,2,2,2h24c1.1,0,2-0.9,2-2v-7.4v-9.4v-7.2
		C61.3,239.5,60.4,238.6,59.3,238.6z"/>
</g>
</svg>
