<?xml version="1.0" encoding="utf-8"?>
<!-- Generator: Adobe Illustrator 25.4.1, SVG Export Plug-In . SVG Version: 6.00 Build 0)  -->
<svg version="1.1" id="Layer_1" xmlns="http://www.w3.org/2000/svg" xmlns:xlink="http://www.w3.org/1999/xlink" x="0px" y="0px"
	 viewBox="0 0 300 300" style="enable-background:new 0 0 300 300;" xml:space="preserve">
<style type="text/css">
	.st0{fill:#FFFFFF;}
</style>
<g>
	<rect x="94.3" y="34.5" class="st0" width="8.6" height="8.6"/>
	<polygon class="st0" points="120,34.6 120,34.5 120,26 111.4,26 111.4,34.5 111.4,34.6 111.4,43.1 120,43.1 	"/>
	<rect x="239.7" y="94.3" class="st0" width="8.6" height="8.6"/>
	<rect x="256.8" y="94.3" class="st0" width="8.6" height="8.6"/>
	<path class="st0" d="M274,111.5v-8.6h-8.6v8.5h-8.6h-8.5h-0.1h-8.5v-8.5h-8.5v-8.6h-8.6v8.6h-8.5v-8.6h-8.6v-8.5v-8.6H197v-8.4
		v-0.1v-8.5h8.5v-8.6V43H197h-0.1h-8.4v-8.5h-8.6h-8.5h-0.1h-8.5h-8.6h-8.5h-0.1h-8.4V26h-8.6v8.6h8.5V43h-8.5v8.6v8.6h8.6v-8.6h8.5
		v-8.5h8.5h8.6h8.5h0.1h8.5h8.5v8.5h-8.5h-8.5h-0.1h-8.5h-8.6v8.6h8.6h8.5h0.1h8.5h8.5v8.5v0.1v8.4h-8.5v-8.5h-8.6v8.5h-8.5v8.6v8.5
		h-8.6h-8.5h-0.1h-8.5v8.6h-8.5v8.6h8.5v8.5h-8.5v8.6v8.6h8.5h0.1h8.4v8.4h-8.4h-0.1h-8.5H120v8.6h-8.6v8.6h8.6v8.5h-8.5h-0.1h-8.5
		v-8.5h-8.5h-0.1h-8.5h-8.5h-0.1h-8.5v8.5h-8.5v-8.5h-8.6v8.5v0.1v8.5h8.6v8.5h-8.6H43v8.5v0.1v8.5h8.6V197h8.6h8.5v8.5h8.5h0.1h8.5
		h8.5v8.6v8.6h8.6v8.4h-8.6v8.6v8.5v0.1v8.5v8.6v8.6h8.6v-8.6v-8.6h8.5v8.6v8.6h8.6v-8.6v-8.6h-8.5v-8.6h-8.6v-8.5v-8.5h8.6v-8.5
		v-0.1v-8.5v-8.6h8.5V197v-0.1v-8.5h-8.5v-8.5h8.5v-8.5h8.6v8.5h8.5v8.5h-8.5v8.5v0.1v8.5h8.6V197h8.4v8.5h8.6h8.6V197h8.5v8.5h8.6
		v8.6h8.5v8.6h8.5v8.4h-8.4h-0.1h-8.5h-8.6v8.6h8.6v8.5h-8.5h-0.1h-8.5v-8.5v-8.6h-8.6v-8.4h8.6h8.5h0.1h8.5v-8.6h-8.5h-0.1h-8.5
		h-8.6h-8.5h-0.1h-8.4h-0.1h-8.5H120v8.5v0.1v8.4v0.1v8.5h8.6v8.5v0.1v8.5v8.6v8.6h8.5h0.1h8.4h0.1h8.5h8.6h8.5h0.1h8.5v-8.6h-8.5
		h-0.1h-8.5h-8.6v-8.6h8.6h8.5h0.1h8.5v-8.5h8.5v8.5h-8.5v8.6h8.6v-8.6h8.5v-8.5h8.5h8.6v8.5h8.5v8.6h-8.5v8.6h8.5h0.1h8.4h0.1h8.5
		v-8.6h-8.5v-8.6h8.5v-8.5h8.5v8.5h-8.5v8.6h8.5v8.6h8.6v-8.6h-8.5v-8.6h8.5h8.6v-8.6h-8.6h-8.5v-8.5h8.5h8.6h8.6v-8.5v-0.1v-8.5
		h-8.6h-8.6v-8.5h-8.5v-8.6V197v-0.1v-8.4h8.5v8.4v0.1v8.5v8.6h8.6v-8.6V197h8.6v-8.5v-0.1v-8.5v0v-8.6h-8.6h-8.6v8.6h-8.5v-8.5
		v-0.1v-8.5h-8.6v8.5v0.1v8.5h8.5v8.5h-8.5h-8.5h-0.1h-8.4h-0.1h-8.5v8.5h-8.6v-8.5H197h-0.1h-8.5v8.5h-8.5h-8.5v-8.4h8.5v-8.6h-8.5
		h-0.1h-8.5h-8.6v-8.5h8.6h8.5h0.1h8.5v-8.6h-8.5h-0.1h-8.5h-8.6v-8.6h-8.5v-8.5h8.5v8.5h8.6h8.5h0.1h8.5v-8.5h8.6v-8.5v-0.1v-8.5
		h8.4h0.1h8.5V120H197v-8.5v-0.1v-8.5h8.5v8.6h8.6h8.5v8.5h-8.5v8.6h8.5h0.1h8.4v8.6h8.6v8.4v0.1v8.5h8.5h0.1h8.5v8.6h8.6h8.6v-8.6
		h-8.6v-8.5h8.6v-8.6h-8.6h-8.6v8.5h-8.5v-8.4v-0.1v-8.5h-8.6V120h-8.5v-8.5h8.5v8.5h8.5h0.1h8.5v8.6h8.6h8.6V120h-8.6v-8.5H274z
		 M188.5,51.6h8.4v8.6h-8.4V51.6z M85.8,171.4h8.5h0.1h8.5v8.5h-8.6v8.5h-8.5v-8.5h-8.5v-8.5H85.8z M77.3,196.9L77.3,196.9h-8.5
		v-8.4h8.4h0.1h8.5v8.4H77.3z M102.9,205.5h-8.5V197v-0.1v-8.4h8.5v8.5h8.5v8.5H102.9z M128.6,222.7h8.5v8.4h-8.5V222.7z
		 M137.2,265.4v-8.6h8.4v8.6H137.2z M145.7,248.2L145.7,248.2h-8.5v-8.5v-8.5h8.4h0.1h8.5v8.5v8.5H145.7z M196.9,239.7v8.5h-8.4
		v-8.5H196.9z M214.1,248.2v-8.5h8.5v8.5H214.1z M239.7,239.7v8.5h-8.5v-8.5H239.7v-8.5h8.5v8.5H239.7z M256.8,222.7v8.4h-8.5v-8.4
		H256.8z M248.2,222.6h-8.5v-8.5h8.5V222.6z M214.1,205.5h8.5h0.1h8.4v8.6v8.5v0.1v8.4h-8.4h-0.1h-8.5h-8.6v-8.4v-0.1v-8.5v-8.6
		H214.1z M196.9,205.5h-8.4V197h8.4V205.5z M188.5,77.3h8.4v8.5h-8.4V77.3z M145.6,102.9v8.5h-8.4v-8.5H145.6z M137.2,120h8.4v8.6
		h-8.4V120z M162.8,188.5v8.4h-8.6h-8.5v-8.4h8.5H162.8z M145.6,162.8v8.5v0.1v8.5h-8.4v-8.6h-8.6v-8.5v-8.6h8.5h0.1h8.4V162.8z
		 M145.7,137.1v-8.5h8.5V120h-8.5v-8.5h8.5v8.5h8.6v8.6h-8.6v8.5H145.7z M179.9,145.6h-8.5h-0.1h-8.5h-8.6v-8.4h8.6h8.5h0.1h8.5
		V145.6z M188.4,102.9v8.5v0.1v8.5v8.6h-8.5h-8.5V120h8.5v-8.6h-8.5h-0.1h-8.5v-8.5v-8.5h8.6v-8.6v-8.5h8.5v8.5h8.5v8.6h8.5v8.5
		H188.4z"/>
	<rect x="51.6" y="111.4" class="st0" width="8.6" height="8.6"/>
	<path class="st0" d="M60.2,154.2v-8.5h8.6v-8.5h8.4h0.1h8.5v8.4h-8.6v8.6h8.6h8.5h0.1h8.5v-8.5v-0.1v-8.4h8.5h0.1h8.5v-8.6h-8.5
		h-0.1h-8.5v8.5h-8.5v-8.5h-8.6h-8.5V120h8.5h8.6v-8.6h-8.6h-8.5v-8.5h8.5h8.5h0.1h8.5h8.5v8.5v0.1v8.5h8.6v-8.5v-0.1v-8.5h-8.5
		v-8.5h8.5v8.5h8.6v-8.5v-0.1v-8.5H120v-8.5h8.6v8.5h8.6v-8.5h8.4v8.5h8.6v-8.5v-0.1v-8.5h-8.5h-0.1h-8.4h-0.1h-8.5H120v8.5h-8.5
		v-8.4v-0.1v-8.5h8.5v-8.6h-8.5h-0.1h-8.5h-8.6v8.6h8.6v8.5h-8.6v8.5v0.1v8.5h8.6v-8.5h8.5v8.5h-8.5v8.5h-8.5h-0.1h-8.5h-8.6v8.6
		h-8.4v-8.6h-8.6h-8.6h-8.5H43h-8.4h-0.1H26v8.6h8.5v8.6h8.6v-8.6h8.5h8.6h8.5v8.6h8.5v8.5h-8.5v8.6v8.5h-8.5v-8.5h-8.6V120H43v8.6
		h-8.4h-0.1H26v8.5v0.1v8.5h8.5h0.1H43v8.5v8.6h8.6v-8.6H60.2z M43.1,145.6v-8.4h8.5h8.6v8.4h-8.6H43.1z"/>
	<path class="st0" d="M231.2,145.6h-8.5v-8.5h-8.6v8.6h8.5v8.5h-8.5v8.6h8.5v8.6h8.6v-8.6h8.5v-8.6h-8.5V145.6z M231.1,162.8h-8.4
		v-8.6h8.4V162.8z"/>
	<rect x="26" y="154.2" class="st0" width="8.6" height="8.6"/>
	<polygon class="st0" points="205.5,162.8 205.5,154.2 205.5,145.6 196.9,145.6 196.9,154.2 188.4,154.2 188.4,162.8 196.9,162.8 
		196.9,171.3 188.4,171.3 188.4,179.9 196.9,179.9 197,179.9 205.5,179.9 214.1,179.9 214.1,171.3 205.5,171.3 	"/>
	<polygon class="st0" points="34.6,197 34.6,196.9 34.6,188.5 34.6,188.4 34.6,179.9 43.1,179.9 43.1,171.3 34.6,171.3 34.5,171.3 
		26,171.3 26,179.9 26,179.9 26,188.4 26,188.5 26,196.9 26,197 26,205.5 34.6,205.5 	"/>
	<rect x="214.1" y="214.1" class="st0" width="8.6" height="8.6"/>
	<rect x="265.4" y="256.8" class="st0" width="8.6" height="8.6"/>
	<path class="st0" d="M27.8,85.8H84c1,0,1.8-0.8,1.8-1.8v-6.7v-8.6v-8.5v-8.5V43v-8.5v-6.7c0-1-0.8-1.8-1.8-1.8
		c0-0.1-56.2-0.1-56.2-0.1c-1,0-1.8,0.8-1.8,1.8v6.7V43v8.5V60v8.5v8.6V84C26,85,26.8,85.8,27.8,85.8z M34.5,68.5V60v-8.5V43v-7.5
		c0-0.6,0.5-1,1-1h40.7c0.6,0,1,0.5,1,1V43v8.5V60v8.5V76c0,0.6-0.5,1-1,1H35.5c-0.6,0-1-0.5-1-1V68.5z"/>
	<path class="st0" d="M44.9,68.6h22c1,0,1.8-0.8,1.8-1.8v-6.7v-8.5v-6.7c0-1-0.8-1.8-1.8-1.8h-22c-1,0-1.8,0.8-1.8,1.8v6.7v8.5v6.7
		C43.1,67.8,43.9,68.6,44.9,68.6z"/>
	<path class="st0" d="M215.9,85.8h56.2c1,0,1.8-0.8,1.8-1.8v-6.7v-8.6v-8.5v-8.5V43v-8.5v-6.7c0-1-0.8-1.8-1.8-1.8
		c0-0.1-56.2-0.1-56.2-0.1c-1,0-1.8,0.8-1.8,1.8v6.7V43v8.5V60v8.5v8.6V84C214.1,85,214.9,85.8,215.9,85.8z M222.7,68.5V60v-8.5V43
		v-7.5c0-0.6,0.5-1,1-1h40.7c0.6,0,1,0.5,1,1V43v8.5V60v8.5V76c0,0.6-0.5,1-1,1h-40.7c-0.6,0-1-0.5-1-1V68.5z"/>
	<path class="st0" d="M233,68.6h22c1,0,1.8-0.8,1.8-1.8v-6.7v-8.5v-6.7c0-1-0.8-1.8-1.8-1.8h-22c-1,0-1.8,0.8-1.8,1.8v6.7v8.5v6.7
		C231.2,67.8,232,68.6,233,68.6z"/>
	<path class="st0" d="M84,214H27.8c-1,0-1.8,0.8-1.8,1.8v6.7v8.5v8.6v8.6v8.5v8.6v6.7c0,1,0.8,1.8,1.8,1.8H84c1,0,1.8-0.8,1.8-1.8
		v-6.7v-8.6v-8.5v-8.6V231v-8.5v-6.7C85.8,214.8,85,214,84,214z M77.2,231.1v8.6v8.6v8.5v7.5c0,0.6-0.5,1-1,1H35.5c-0.6,0-1-0.5-1-1
		v-7.5v-8.5v-8.6v-8.6v-7.5c0-0.6,0.5-1,1-1h40.7c0.6,0,1,0.5,1,1V231.1z"/>
	<path class="st0" d="M66.9,231.2h-22c-1,0-1.8,0.8-1.8,1.8v6.7v8.6v6.7c0,1,0.8,1.8,1.8,1.8h22c1,0,1.8-0.8,1.8-1.8v-6.8v-8.6V233
		C68.7,232,67.9,231.2,66.9,231.2z"/>
</g>
</svg>
