<svg xmlns="http://www.w3.org/2000/svg" viewBox="0 0 82.65 82.65"><g id="Layer_2" data-name="Layer 2"><g id="Layer_1-2" data-name="Layer 1"><path d="M24.23,2.85A1.43,1.43,0,1,0,22.8,1.43,1.43,1.43,0,0,0,24.23,2.85Z"/><path d="M44.18,2.85a1.43,1.43,0,1,0-1.43-1.42A1.43,1.43,0,0,0,44.18,2.85Z"/><path d="M55.57,2.85a1.43,1.43,0,1,0-1.42-1.42A1.43,1.43,0,0,0,55.57,2.85Z"/><path d="M57,5.7v7.13a1.43,1.43,0,0,0,2.85,0V4.28a1.43,1.43,0,1,0-2.85,0Z"/><path d="M47,8.55A1.43,1.43,0,0,1,48.45,10v2.85a1.43,1.43,0,0,0,2.85,0V7.12A1.43,1.43,0,0,1,52.73,5.7a1.43,1.43,0,0,0,0-2.85H49.88a1.43,1.43,0,0,0-1.43,1.43A1.43,1.43,0,0,1,47,5.7a1.43,1.43,0,1,0,0,2.85Z"/><path d="M39.9,11.4v1.43a1.43,1.43,0,0,0,1.42,1.42,1.43,1.43,0,0,1,1.43,1.43,1.43,1.43,0,0,0,2.85,0V10a1.43,1.43,0,0,0-1.42-1.43H41.32A1.43,1.43,0,0,0,39.9,10Z"/><path d="M24.23,14.25a1.43,1.43,0,0,0,1.42-1.42,1.43,1.43,0,0,1,1.42-1.43h2.86A1.43,1.43,0,0,0,31.35,10V7.12A1.43,1.43,0,0,1,32.78,5.7h5.7A1.43,1.43,0,0,0,39.9,4.28V1.43A1.43,1.43,0,0,0,38.48,0H35.63A1.43,1.43,0,0,0,34.2,1.43a1.43,1.43,0,0,1-2.85,0,1.43,1.43,0,1,0-2.85,0,1.43,1.43,0,0,1-1.43,1.42,1.43,1.43,0,0,0-1.42,1.43A1.43,1.43,0,0,1,24.23,5.7,1.43,1.43,0,0,0,22.8,7.12v5.71A1.43,1.43,0,0,0,24.23,14.25Z"/><path d="M38.48,14.25a1.43,1.43,0,1,0,1.42,1.43A1.43,1.43,0,0,0,38.48,14.25Z"/><circle cx="24.23" cy="18.53" r="1.42"/><path d="M41.32,20a1.43,1.43,0,1,0-1.42-1.42A1.43,1.43,0,0,0,41.32,20Z"/><path d="M55.57,17.1a1.43,1.43,0,1,0,0-2.85H52.73a1.43,1.43,0,0,0-1.43,1.43v2.85a1.43,1.43,0,0,0,2.85,0A1.43,1.43,0,0,1,55.57,17.1Z"/><circle cx="58.43" cy="18.53" r="1.42"/><path d="M48.45,22.8h1.43a1.43,1.43,0,0,0,0-2.85,1.43,1.43,0,0,1-1.43-1.42,1.43,1.43,0,1,0-2.85,0v2.85A1.43,1.43,0,0,0,47,22.8Z"/><circle cx="18.53" cy="24.23" r="1.42"/><circle cx="24.23" cy="24.23" r="1.42"/><circle cx="61.28" cy="24.23" r="1.42"/><path d="M81.23,22.8a1.43,1.43,0,0,0-1.43,1.43v2.85a1.43,1.43,0,0,0,2.85,0V24.23A1.43,1.43,0,0,0,81.23,22.8Z"/><path d="M11.4,28.5v4.28a1.43,1.43,0,0,0,2.85,0,1.43,1.43,0,0,1,1.43-1.43h5.7a1.43,1.43,0,0,0,1.42-1.42V27.08a1.43,1.43,0,1,0-2.85,0,1.43,1.43,0,0,1-2.85,0,1.43,1.43,0,0,0-1.42-1.43H12.82a1.43,1.43,0,0,0-1.42,1.43Z"/><path d="M55.57,28.5A1.43,1.43,0,0,0,57,27.08V24.23a1.43,1.43,0,1,0-2.85,0v2.85A1.43,1.43,0,0,0,55.57,28.5Z"/><path d="M1.43,31.35a1.43,1.43,0,0,0,1.42-1.42,1.43,1.43,0,1,1,2.85,0v2.85a1.43,1.43,0,0,0,2.85,0v-5.7A1.43,1.43,0,0,1,10,25.65a1.43,1.43,0,0,0,0-2.85H1.43A1.43,1.43,0,0,0,0,24.23v5.7A1.43,1.43,0,0,0,1.43,31.35Z"/><path d="M41.32,28.5H47a1.43,1.43,0,0,0,0-2.85H41.32a1.43,1.43,0,0,1-1.42-1.42,1.43,1.43,0,0,0-1.42-1.43,1.43,1.43,0,0,1-1.43-1.42V18.53a1.43,1.43,0,1,0-2.85,0v2.85a1.43,1.43,0,0,1-2.85,0V18.53a1.43,1.43,0,0,1,1.43-1.43,1.43,1.43,0,0,0,1.42-1.42,1.43,1.43,0,0,1,1.43-1.43,1.43,1.43,0,0,0,1.42-1.42V10a1.43,1.43,0,1,0-2.85,0,1.43,1.43,0,0,1-1.42,1.42,1.43,1.43,0,0,0-1.43,1.43,1.43,1.43,0,0,1-1.42,1.42,1.43,1.43,0,0,0-1.43,1.43v11.4a1.43,1.43,0,0,1-1.43,1.42,1.43,1.43,0,0,0-1.42,1.43v2.85a1.43,1.43,0,0,1-1.42,1.42H15.68a1.43,1.43,0,0,0-1.43,1.42,1.43,1.43,0,1,1-2.85,0,1.43,1.43,0,0,0-2.85,0,1.43,1.43,0,1,1-2.85,0,1.43,1.43,0,0,0-2.85,0v2.86A1.43,1.43,0,0,0,4.28,39.9,1.43,1.43,0,0,1,5.7,41.33a1.43,1.43,0,0,0,2.85,0A1.43,1.43,0,1,1,10,42.75a1.43,1.43,0,1,0,0,2.85h2.84a1.43,1.43,0,0,0,1.43-1.42V41.33a1.43,1.43,0,0,1,1.43-1.43,1.43,1.43,0,0,0,1.42-1.42,1.43,1.43,0,1,1,2.85,0,1.43,1.43,0,0,0,2.85,0,1.43,1.43,0,1,1,2.85,0,1.43,1.43,0,0,0,2.85,0,1.43,1.43,0,0,1,1.43-1.43,1.43,1.43,0,0,0,1.42-1.43V32.78a1.43,1.43,0,0,1,1.43-1.43h5.7a1.43,1.43,0,0,0,1.42-1.42A1.43,1.43,0,0,1,41.32,28.5Zm-10-1.42a1.43,1.43,0,1,1,1.43,1.42A1.43,1.43,0,0,1,31.35,27.08Z"/><path d="M49.88,31.35h2.85a1.43,1.43,0,0,0,0-2.85H49.88a1.43,1.43,0,1,0,0,2.85Z"/><path d="M58.43,34.2h2.85a1.43,1.43,0,0,0,1.42-1.42V29.93a1.43,1.43,0,1,0-2.85,0,1.43,1.43,0,0,1-1.42,1.42,1.43,1.43,0,1,0,0,2.85Z"/><path d="M81.23,31.35H78.38A1.43,1.43,0,0,1,77,29.93a1.43,1.43,0,1,0-2.85,0v2.85a1.43,1.43,0,0,0,1.43,1.42h5.7a1.43,1.43,0,0,0,0-2.85Z"/><path d="M37.05,37.05V35.62a1.43,1.43,0,0,0-2.85,0,1.43,1.43,0,0,1-1.42,1.43,1.43,1.43,0,0,0-1.43,1.43v2.85a1.43,1.43,0,0,1-1.42,1.42,1.43,1.43,0,1,0,0,2.85h2.85a1.43,1.43,0,0,0,1.42-1.42V41.33a1.43,1.43,0,0,1,1.43-1.43,1.43,1.43,0,0,0,1.42-1.42Z"/><circle cx="18.53" cy="41.33" r="1.42"/><circle cx="24.23" cy="41.33" r="1.42"/><circle cx="38.48" cy="41.33" r="1.42"/><path d="M81.23,39.9H78.38A1.43,1.43,0,0,1,77,38.48a1.43,1.43,0,0,0-1.42-1.43,1.43,1.43,0,0,1-1.43-1.43,1.43,1.43,0,0,0-1.42-1.42H69.82a1.43,1.43,0,0,1-1.42-1.42V29.93a1.43,1.43,0,0,1,1.42-1.43h2.86a1.43,1.43,0,0,0,1.42-1.42,1.43,1.43,0,0,1,1.43-1.43,1.43,1.43,0,0,0,0-2.85H69.82a1.43,1.43,0,0,0-1.42,1.43A1.43,1.43,0,0,1,67,25.65H64.13a1.43,1.43,0,1,0,0,2.85,1.43,1.43,0,0,1,1.42,1.43v8.55a1.43,1.43,0,0,0,2.85,0,1.43,1.43,0,1,1,2.85,0v2.85a1.43,1.43,0,0,1-1.43,1.42H67a1.43,1.43,0,1,0,0,2.85A1.43,1.43,0,0,1,68.4,47a1.43,1.43,0,0,0,1.42,1.42h8.56a1.43,1.43,0,0,0,0-2.85H75.53a1.43,1.43,0,1,1,0-2.85h5.7a1.43,1.43,0,0,0,0-2.85Z"/><path d="M1.43,45.6a1.43,1.43,0,0,0,1.42-1.42V41.33a1.43,1.43,0,1,0-2.85,0v2.85A1.43,1.43,0,0,0,1.43,45.6Z"/><path d="M21.38,45.6A1.43,1.43,0,1,0,20,44.18,1.43,1.43,0,0,0,21.38,45.6Z"/><path d="M18.53,45.6H15.68a1.43,1.43,0,1,0,0,2.85h2.85a1.43,1.43,0,0,0,0-2.85Z"/><path d="M35.63,45.6A1.43,1.43,0,1,0,37.05,47,1.43,1.43,0,0,0,35.63,45.6Z"/><path d="M64.13,45.6A1.43,1.43,0,1,0,65.55,47,1.43,1.43,0,0,0,64.13,45.6Z"/><path d="M12.82,48.45H4.28a1.43,1.43,0,1,0,0,2.85h8.54a1.43,1.43,0,1,0,0-2.85Z"/><path d="M21.38,51.3h8.55a1.43,1.43,0,0,0,0-2.85A1.43,1.43,0,0,1,28.5,47a1.43,1.43,0,1,0-2.85,0,1.43,1.43,0,0,1-1.42,1.42H21.38a1.43,1.43,0,1,0,0,2.85Z"/><circle cx="1.43" cy="52.73" r="1.42"/><circle cx="18.53" cy="52.73" r="1.42"/><circle cx="72.68" cy="52.73" r="1.42"/><path d="M78.38,54.15A1.43,1.43,0,1,0,77,52.73,1.43,1.43,0,0,0,78.38,54.15Z"/><path d="M7.13,54.15a1.43,1.43,0,1,0,1.42,1.43A1.43,1.43,0,0,0,7.13,54.15Z"/><path d="M15.68,54.15H12.82a1.43,1.43,0,0,0-1.42,1.43A1.43,1.43,0,0,1,10,57a1.43,1.43,0,1,0,0,2.85h2.84a1.43,1.43,0,0,0,1.43-1.42A1.43,1.43,0,0,1,15.68,57a1.43,1.43,0,0,0,0-2.85Z"/><circle cx="32.78" cy="55.58" r="1.42"/><circle cx="75.53" cy="55.58" r="1.42"/><path d="M81.23,54.15a1.43,1.43,0,0,0-1.43,1.43v2.85a1.43,1.43,0,0,0,2.85,0V55.58A1.43,1.43,0,0,0,81.23,54.15Z"/><path d="M4.28,57A1.43,1.43,0,1,0,5.7,58.43,1.43,1.43,0,0,0,4.28,57Z"/><path d="M21.38,57H18.53a1.43,1.43,0,1,0,0,2.85h2.85a1.43,1.43,0,0,0,0-2.85Z"/><path d="M77,62.7v1.42a1.43,1.43,0,1,0,2.85,0V61.28a1.43,1.43,0,1,0-2.85,0Z"/><path d="M47,65.55a1.43,1.43,0,1,0-1.43-1.43A1.43,1.43,0,0,0,47,65.55Z"/><path d="M64.13,62.7a1.43,1.43,0,1,0,1.42,1.42A1.43,1.43,0,0,0,64.13,62.7Z"/><path d="M29.93,68.4a1.43,1.43,0,0,1,0,2.85,1.43,1.43,0,1,0,0,2.85h2.85a1.43,1.43,0,0,0,1.42-1.42V69.83a1.43,1.43,0,0,1,1.43-1.43h5.69A1.43,1.43,0,0,0,42.75,67V64.12a1.43,1.43,0,0,0-2.85,0,1.43,1.43,0,0,1-1.42,1.43H29.93a1.43,1.43,0,1,1,0-2.85,1.43,1.43,0,0,0,0-2.85,1.43,1.43,0,0,1-1.43-1.42V55.58a1.43,1.43,0,0,0-1.43-1.43H24.23a1.43,1.43,0,1,0,0,2.85,1.43,1.43,0,0,1,0,2.85,1.43,1.43,0,1,0,0,2.85,1.43,1.43,0,0,1,1.42,1.42v5.71a1.43,1.43,0,0,0,2.85,0A1.43,1.43,0,0,1,29.93,68.4Z"/><path d="M72.68,68.4A1.43,1.43,0,0,0,74.1,67V64.12a1.43,1.43,0,0,0-1.42-1.42,1.43,1.43,0,0,1-1.43-1.42V58.43A1.43,1.43,0,0,0,69.82,57a1.43,1.43,0,0,1-1.42-1.42v-5.7a1.43,1.43,0,1,0-2.85,0v2.85a1.43,1.43,0,0,1-1.42,1.42H61.28a1.43,1.43,0,0,0-1.43,1.43,1.43,1.43,0,0,1-2.85,0v-5.7a1.43,1.43,0,0,0-1.43-1.43H52.73a1.43,1.43,0,1,0,0,2.85,1.43,1.43,0,0,1,1.42,1.43v2.85A1.43,1.43,0,0,1,52.73,57H49.88a1.43,1.43,0,1,1,0-2.85,1.43,1.43,0,0,0,0-2.85,1.43,1.43,0,0,1-1.43-1.42A1.43,1.43,0,0,0,47,48.45H44.18a1.43,1.43,0,1,1,0-2.85H58.43a1.43,1.43,0,0,0,1.42-1.42,1.43,1.43,0,0,1,1.43-1.43h2.85a1.43,1.43,0,0,0,0-2.85,1.43,1.43,0,0,1-1.43-1.42,1.43,1.43,0,0,0-1.42-1.43H55.57a1.43,1.43,0,0,0,0,2.85,1.43,1.43,0,1,1-1.42,1.43,1.43,1.43,0,0,0-1.42-1.43,1.43,1.43,0,1,1,0-2.85,1.43,1.43,0,0,0,0-2.85H47a1.43,1.43,0,0,1-1.43-1.42,1.43,1.43,0,1,0-2.85,0,1.43,1.43,0,0,1-1.43,1.42,1.43,1.43,0,0,0-1.42,1.42v2.86a1.43,1.43,0,0,0,2.85,0,1.43,1.43,0,0,1,1.43-1.43H47a1.43,1.43,0,0,1,0,2.85,1.43,1.43,0,0,0-1.43,1.43,1.43,1.43,0,0,1-1.42,1.42H41.32a1.43,1.43,0,0,0-1.42,1.43v5.7a1.43,1.43,0,0,1-1.42,1.42,1.43,1.43,0,0,0-1.43,1.43v5.7a1.43,1.43,0,0,0,1.43,1.42h2.84a1.43,1.43,0,0,0,1.43-1.42,1.43,1.43,0,1,1,2.85,0A1.43,1.43,0,0,0,47,59.85h8.54a1.43,1.43,0,1,1,0,2.85H52.73a1.43,1.43,0,0,0-1.43,1.42V67a1.43,1.43,0,0,1-1.42,1.42,1.43,1.43,0,0,0-1.43,1.43v5.7A1.43,1.43,0,0,1,47,77a1.43,1.43,0,0,0-1.43,1.43v2.85A1.43,1.43,0,0,0,47,82.65h2.85a1.43,1.43,0,0,0,1.42-1.42V78.38a1.43,1.43,0,1,1,2.85,0v2.85a1.43,1.43,0,0,0,1.42,1.42h2.86a1.43,1.43,0,0,0,0-2.85A1.43,1.43,0,0,1,57,78.38v-5.7a1.43,1.43,0,1,0-2.85,0,1.43,1.43,0,1,1-1.42-1.43,1.43,1.43,0,0,0,1.42-1.42,1.43,1.43,0,1,1,2.85,0,1.43,1.43,0,0,0,1.43,1.42H69.82a1.43,1.43,0,0,0,1.43-1.42A1.43,1.43,0,0,1,72.68,68.4ZM42.75,52.73a1.43,1.43,0,1,1,1.43,1.42A1.43,1.43,0,0,1,42.75,52.73ZM65.55,68.4H61.28A1.43,1.43,0,0,1,59.85,67v-5.7a1.43,1.43,0,0,1,1.43-1.43H67a1.43,1.43,0,0,1,1.42,1.43V67A1.43,1.43,0,0,1,67,68.4Z"/><path d="M81.23,68.4h-5.7a1.43,1.43,0,0,0-1.43,1.43,1.43,1.43,0,0,1-1.42,1.42,1.43,1.43,0,0,0-1.43,1.43v8.55a1.43,1.43,0,0,0,2.85,0v-5.7a1.43,1.43,0,0,1,1.43-1.43h2.85a1.43,1.43,0,0,0,1.42-1.42,1.43,1.43,0,0,1,1.43-1.43,1.43,1.43,0,0,0,0-2.85Z"/><path d="M24.23,71.25a1.43,1.43,0,0,0-1.43,1.43v8.55a1.43,1.43,0,0,0,2.85,0V72.68A1.43,1.43,0,0,0,24.23,71.25Z"/><path d="M37.05,72.68a1.43,1.43,0,1,0,1.43-1.43A1.43,1.43,0,0,0,37.05,72.68Z"/><path d="M45.6,71.25V69.83a1.43,1.43,0,1,0-2.85,0v2.85a1.43,1.43,0,0,0,2.85,0Z"/><path d="M41.32,74.1a1.43,1.43,0,1,0,1.43,1.43A1.43,1.43,0,0,0,41.32,74.1Z"/><circle cx="61.28" cy="75.53" r="1.42"/><path d="M81.23,74.1a1.43,1.43,0,0,0-1.43,1.43v2.85a1.43,1.43,0,0,0,2.85,0V75.53A1.43,1.43,0,0,0,81.23,74.1Z"/><path d="M38.48,77a1.43,1.43,0,0,1-1.43-1.42,1.43,1.43,0,1,0-2.85,0v2.85a1.43,1.43,0,0,0,1.43,1.42h2.85a1.43,1.43,0,0,0,0-2.85Z"/><path d="M67,77a1.43,1.43,0,1,0,1.42,1.43A1.43,1.43,0,0,0,67,77Z"/><path d="M32.78,79.8H29.93a1.43,1.43,0,1,0,0,2.85h2.85a1.43,1.43,0,0,0,0-2.85Z"/><path d="M78.38,79.8a1.43,1.43,0,1,0,1.42,1.43A1.43,1.43,0,0,0,78.38,79.8Z"/><path d="M14,0H6A6,6,0,0,0,0,6v8a6,6,0,0,0,6,6h8a6,6,0,0,0,6-6V6A6,6,0,0,0,14,0ZM17.1,13.05a4,4,0,0,1-4.05,4.05H6.9a4,4,0,0,1-4.05-4.05V6.9A4,4,0,0,1,6.9,2.85h6.15A4,4,0,0,1,17.1,6.9Z"/><path d="M12,14.25H8.05A2.29,2.29,0,0,1,5.75,12V8.05a2.29,2.29,0,0,1,2.3-2.3H12a2.29,2.29,0,0,1,2.3,2.3V12A2.33,2.33,0,0,1,12,14.25Z"/><path d="M76.65,0h-8a6,6,0,0,0-6,6v8a6,6,0,0,0,6,6h8a6,6,0,0,0,6-6V6A6,6,0,0,0,76.65,0ZM79.8,13.05a4,4,0,0,1-4,4.05H69.6a4,4,0,0,1-4-4.05V6.9a4,4,0,0,1,4-4.05h6.15a4,4,0,0,1,4,4.05Z"/><path d="M74.65,14.25h-3.9a2.29,2.29,0,0,1-2.3-2.3V8.05a2.29,2.29,0,0,1,2.3-2.3h3.9A2.29,2.29,0,0,1,77,8.05V12A2.33,2.33,0,0,1,74.65,14.25Z"/><path d="M14,62.7H6a6,6,0,0,0-6,6v8a6,6,0,0,0,6,6h8a6,6,0,0,0,6-6v-8A6,6,0,0,0,14,62.7Zm3.15,13a4,4,0,0,1-4.05,4H6.9a4,4,0,0,1-4.05-4V69.6a4,4,0,0,1,4.05-4h6.15a4,4,0,0,1,4.05,4Z"/><path d="M12,77H8.05a2.29,2.29,0,0,1-2.3-2.3v-3.9a2.29,2.29,0,0,1,2.3-2.3H12a2.29,2.29,0,0,1,2.3,2.3v3.9A2.33,2.33,0,0,1,12,77Z"/></g></g></svg>