<?xml version="1.0" encoding="utf-8"?>
<!-- Generator: Adobe Illustrator 25.4.1, SVG Export Plug-In . SVG Version: 6.00 Build 0)  -->
<svg version="1.1" id="Layer_1" xmlns="http://www.w3.org/2000/svg" xmlns:xlink="http://www.w3.org/1999/xlink" x="0px" y="0px"
	 viewBox="0 0 300 300" style="enable-background:new 0 0 300 300;" xml:space="preserve">
<style type="text/css">
	.st0{fill:#FFFFFF;}
</style>
<g>
	<rect x="94.3" y="34.5" class="st0" width="8.6" height="8.6"/>
	<polygon class="st0" points="120,34.6 120,34.5 120,26 111.4,26 111.4,34.5 111.4,34.6 111.4,43.1 120,43.1 	"/>
	<rect x="239.7" y="94.3" class="st0" width="8.6" height="8.6"/>
	<rect x="128.6" y="102.9" class="st0" width="8.6" height="8.6"/>
	<polygon class="st0" points="154.2,111.4 145.6,111.4 145.6,120 154.2,120 162.8,120 162.8,111.4 	"/>
	<path class="st0" d="M265.4,111.4v-8.5v-8.6h-8.6v8.6v8.5h-8.5h-0.1h-8.5v-8.5h-8.5v-8.6h-8.6v8.6h-8.5v-8.6h-8.6H197v-8.5h8.5
		v-8.5v-0.1v-8.4v-0.1v-8.5h-8.6v8.5v0.1v8.4v0.1v8.5h-8.4v-8.5v-0.1v-8.5h-8.6h-8.5v-8.5v-8.6h8.5v-8.5h8.5v8.5h-8.5v8.6h8.6v-8.6
		h8.5v-8.5h8.5v-8.5v-0.1V26h-8.6v8.5v0.1V43h-8.4v-8.4v-0.1V26h-8.6v8.5h-8.6V43h-8.5v-8.5h-8.6V26h-8.6v8.5h-8.4V26h-8.6v8.6h8.5
		V43h-8.5v8.6v8.6h8.6v-8.6v-8.5h8.4v8.5h8.6v-8.5h8.6v8.5h-8.6v8.6h8.6v8.5h-8.6v-8.5h-8.6v8.5h-8.4h-0.1h-8.5H120v8.5h-8.5v-8.4
		v-0.1v-8.5h8.5v-8.6h-8.5h-0.1h-8.5h-8.6v8.6h8.6v8.5h-8.6v8.5v0.1v8.5h8.6v-8.5h8.5v8.5h-8.5v8.5h-8.5h-0.1h-8.5h-8.6v8.6h8.6h8.5
		h0.1h8.5h8.5v8.5v0.1v8.5h8.6v-8.5v-0.1v-8.5h-8.5v-8.5h8.5v8.5h8.6v-8.5v-0.1v-8.5H120v-8.5h8.6v8.5h8.6v-8.5h8.4v8.5v8.5v0.1v8.5
		h8.6h8.6h8.6v-8.5h8.5v8.5h8.6v-8.5h8.4v8.5h8.6v8.5h-8.6v8.6h-8.4h-0.1h-8.5v8.6h8.5h0.1h8.4v8.6h8.6h8.6v8.4h-8.6v8.6h8.6v-8.5
		h8.5h0.1h8.4v8.5h-8.4h-0.1h-8.5v8.6h8.5v8.5h-8.5v-8.5h-8.6v-8.6h-8.6v8.6v8.5v0.1v8.5v0v8.5h-8.4v-8.5v0v-8.5v-0.1v-8.5h-8.6v8.5
		v0.1v8.5h-8.5h-0.1h-8.5v-8.5v-0.1v-8.5h-8.6v-8.6h-8.5v-8.6h-8.5h-0.1h-8.5H120v8.6h-8.6v8.6h8.6v8.6h8.6v8.5h8.5v8.5h-8.5v8.5
		v0.1v8.5h8.6V197v-0.1v-8.4h8.4v8.5h8.6v8.5h8.6v-8.6h-8.6v-8.4h8.6h8.5v8.5h8.6v8.5v8.6h8.5h0.1h8.4v8.5h-8.4h-0.1h-8.5v8.5h-8.6
		v8.6h8.6v8.5h-8.5h-0.1h-8.5h-8.6v-8.5h-8.6v8.5v0.1v8.5h8.6h8.6h8.5h0.1h8.5h8.5v8.6v8.6h8.6v-8.6h8.5h8.6v-8.6h-8.6H197h-0.1
		h-8.4v-8.5h8.4h0.1h8.5h8.6h8.5h0.1h8.4v8.5h-8.5v8.6h-8.5v8.6h8.6v-8.6h8.4v8.6h8.6h8.5h0.1h8.5v-8.6h-8.5h-0.1h-8.5h-8.5v-8.6
		h8.5v-8.5h8.5v8.5h8.6h8.6v-8.6h-8.6h-8.5v-8.5h-8.6v-8.5v-0.1v-8.4h8.5v8.5h8.6v8.5h8.6h8.6v-8.5v-0.1v-8.5h-8.6h-8.6v-8.5h-8.5
		h-0.1h-8.5v-8.6V197v-0.1v-8.4h8.5h0.1h8.5v8.4v0.1v8.5v8.6h8.6v-8.6V197h8.6v-8.5v-0.1v-8.5v0v-8.6h-8.6v-8.5h-8.6v8.5v0.1v8.5
		h-8.5h-0.1h-8.5v8.5h-8.5v-8.5h-8.5v-8.5h8.4h0.1h8.5v-8.6v-8.6h8.5v8.6h8.6v-8.6h8.6v-8.5v-0.1v-8.5h-8.6v8.5h-8.5h-0.1h-8.5v-8.4
		h8.6v-8.6h-8.6V120h-8.5v-8.5h8.5v8.5h8.5h0.1h8.5h8.6v8.6h8.6V120v-8.6H265.4z M154.2,43h-8.5v-8.4h8.5V43z M154.2,68.8v8.4h-8.5
		v-8.4H154.2z M154.2,94.3v-8.5v-8.5h8.6v8.5h8.5v8.5h-8.5H154.2z M171.4,85.8v-8.5h8.5v8.5h8.5v8.5h-8.5v-8.5H171.4z M128.6,162.8
		v-8.6h8.5h0.1h8.4v8.6v8.5v0.1v8.5h-8.4v-8.6h-8.6V162.8z M154.2,188.4h-8.5v-8.5h8.5V188.4z M231.1,102.9v8.5h-8.4v-8.5H231.1z
		 M214.1,137.1v-8.5h-8.6H197V120h8.5h8.6v-8.5h8.5v8.5h-8.5v8.6h8.5v8.5H214.1z M222.7,196.9v-8.4h8.4v8.4H222.7z M214.1,196.9
		h-8.6H197v-8.4h8.5h8.6V196.9z M222.6,188.4h-8.5v-8.5h8.5V188.4z M205.5,171.4h8.6v8.5h-8.6V171.4z M179.9,188.5h8.5v8.4h-8.5
		V188.5z M188.5,205.5V197h8.4v8.5H188.5z M188.5,239.7v-8.5h8.4v8.5H188.5z M231.1,222.6v0.1v8.4h-8.4h-0.1h-8.5h-8.6v-8.4v-0.1
		v-8.5v-8.6h8.6h8.5h0.1h8.4v8.6V222.6z M231.1,128.6h-8.4V120h8.4V128.6z"/>
	<polygon class="st0" points="51.6,145.6 51.6,137.2 51.6,137.1 51.6,128.6 51.6,120 51.6,111.4 43.1,111.4 43,111.4 34.6,111.4 
		34.6,102.9 43,102.9 43.1,102.9 51.6,102.9 60.2,102.9 68.8,102.9 68.8,94.3 60.2,94.3 51.6,94.3 43.1,94.3 43,94.3 34.6,94.3 
		34.5,94.3 26,94.3 26,102.9 26,111.4 26,111.5 26,120 26,128.6 34.5,128.6 34.5,137.1 26,137.1 26,145.7 34.6,145.7 34.6,137.2 
		43,137.2 43,145.6 43,145.7 43,154.2 51.6,154.2 51.6,145.7 	"/>
	<polygon class="st0" points="162.8,145.7 171.3,145.7 171.3,154.2 162.8,154.2 162.8,162.8 171.4,162.8 171.4,154.2 179.9,154.2 
		188.5,154.2 188.5,145.7 188.5,145.6 188.5,137.1 179.9,137.1 179.9,145.6 171.4,145.6 171.4,137.2 171.4,137.1 171.4,128.6 
		171.4,120 179.9,120 179.9,111.4 171.3,111.4 171.3,120 162.8,120 162.8,128.6 154.2,128.6 145.7,128.6 145.6,128.6 137.2,128.6 
		137.2,120 128.6,120 128.6,128.6 128.6,137.2 137.1,137.2 137.2,137.2 145.6,137.2 145.7,137.2 154.2,137.2 154.2,145.6 
		154.2,145.7 154.2,154.2 162.8,154.2 	"/>
	<rect x="51.6" y="154.2" class="st0" width="8.6" height="8.6"/>
	<rect x="85.8" y="154.2" class="st0" width="8.6" height="8.6"/>
	<rect x="265.4" y="154.2" class="st0" width="8.6" height="8.6"/>
	<path class="st0" d="M94.4,171.3h-8.6v-8.5h-8.5v-8.6h8.5v-8.5h8.6v-8.5h8.5h8.5h0.1h8.5v-8.6h-8.5h-0.1h-8.5h-8.5h-0.1h-8.5h-8.5
		V120h8.5h8.5h0.1h8.5v-8.6h-8.5h-0.1h-8.5h-8.6v8.6h-8.5v8.6h-8.5v8.5v0.1v8.4v0.1v8.5h8.5v8.6v8.5h-8.5v8.6v0v8.5h-8.6H43v8.6h8.6
		v8.5h8.6V197v-0.1v-8.4h8.5v8.4v0.1v8.5h8.5h0.1h8.5v-8.6h-8.5v-8.4h8.5v-8.6h8.6V171.3z M85.8,137.2v8.4h-8.5v-8.4H85.8z
		 M68.8,145.7h8.4v8.5h-8.4V145.7z M85.8,179.9h-8.5v-8.5h8.5V179.9z"/>
	<polygon class="st0" points="34.6,197 34.6,196.9 34.6,188.5 34.6,188.4 34.6,179.9 43.1,179.9 43.1,171.3 34.6,171.3 34.6,162.8 
		34.6,154.2 26,154.2 26,162.8 26,171.3 26,171.4 26,179.9 26,179.9 26,188.4 26,188.5 26,196.9 26,197 26,205.5 34.6,205.5 	"/>
	<rect x="214.1" y="214.1" class="st0" width="8.6" height="8.6"/>
	<path class="st0" d="M162.8,231.1h-8.6v-8.4h8.6h8.6v-8.6v-8.6h-8.6v8.6h-8.6v8.5h-8.5v-8.5h-8.5h-0.1h-8.5H120v8.5v0.1v8.4h-8.5
		v-8.4v-0.1v-8.5h8.5v-8.6V197v-0.1v-8.5h-8.5v-8.5v0v-8.6h-8.6v8.6v0v8.5h-8.6v8.6h8.6v-8.5h8.5v8.4v0.1v8.5h-8.5h-8.6v8.6v8.6h8.6
		v8.4h-8.6v8.6v8.5v0.1v8.5v8.6v8.6h8.6h8.6v-8.6h8.5v-8.6v-8.5v-0.1v-8.5h8.6v8.5v0.1v8.5v8.6h8.6v-8.6v-8.5v-0.1v-8.5v-8.6h-8.6
		v-8.4h8.5h0.1h8.4v8.5h8.6v8.5h8.6V231.1z M102.9,239.7h8.5v8.5h-8.5V239.7z M102.9,265.4v-8.6h8.5v8.6H102.9z"/>
	<rect x="265.4" y="256.8" class="st0" width="8.6" height="8.6"/>
	<polygon class="st0" points="145.6,265.4 145.6,274 154.2,274 162.8,274 162.8,265.4 154.2,265.4 	"/>
	<path class="st0" d="M27.8,85.8H84c1,0,1.8-0.8,1.8-1.8v-6.7v-8.6v-8.5v-8.5V43v-8.5v-6.7c0-1-0.8-1.8-1.8-1.8
		c0-0.1-56.2-0.1-56.2-0.1c-1,0-1.8,0.8-1.8,1.8v6.7V43v8.5V60v8.5v8.6V84C26,85,26.8,85.8,27.8,85.8z M34.5,68.5V60v-8.5V43v-7.5
		c0-0.6,0.5-1,1-1h40.7c0.6,0,1,0.5,1,1V43v8.5V60v8.5V76c0,0.6-0.5,1-1,1H35.5c-0.6,0-1-0.5-1-1V68.5z"/>
	<path class="st0" d="M44.9,68.6h22c1,0,1.8-0.8,1.8-1.8v-6.7v-8.5v-6.7c0-1-0.8-1.8-1.8-1.8h-22c-1,0-1.8,0.8-1.8,1.8v6.7v8.5v6.7
		C43.1,67.8,43.9,68.6,44.9,68.6z"/>
	<path class="st0" d="M215.9,85.8h56.2c1,0,1.8-0.8,1.8-1.8v-6.7v-8.6v-8.5v-8.5V43v-8.5v-6.7c0-1-0.8-1.8-1.8-1.8
		c0-0.1-56.2-0.1-56.2-0.1c-1,0-1.8,0.8-1.8,1.8v6.7V43v8.5V60v8.5v8.6V84C214.1,85,214.9,85.8,215.9,85.8z M222.7,68.5V60v-8.5V43
		v-7.5c0-0.6,0.5-1,1-1h40.7c0.6,0,1,0.5,1,1V43v8.5V60v8.5V76c0,0.6-0.5,1-1,1h-40.7c-0.6,0-1-0.5-1-1V68.5z"/>
	<path class="st0" d="M233,68.6h22c1,0,1.8-0.8,1.8-1.8v-6.7v-8.5v-6.7c0-1-0.8-1.8-1.8-1.8h-22c-1,0-1.8,0.8-1.8,1.8v6.7v8.5v6.7
		C231.2,67.8,232,68.6,233,68.6z"/>
	<path class="st0" d="M84,214H27.8c-1,0-1.8,0.8-1.8,1.8v6.7v8.5v8.6v8.6v8.5v8.6v6.7c0,1,0.8,1.8,1.8,1.8H84c1,0,1.8-0.8,1.8-1.8
		v-6.7v-8.6v-8.5v-8.6V231v-8.5v-6.7C85.8,214.8,85,214,84,214z M77.2,231.1v8.6v8.6v8.5v7.5c0,0.6-0.5,1-1,1H35.5c-0.6,0-1-0.5-1-1
		v-7.5v-8.5v-8.6v-8.6v-7.5c0-0.6,0.5-1,1-1h40.7c0.6,0,1,0.5,1,1V231.1z"/>
	<path class="st0" d="M66.9,231.2h-22c-1,0-1.8,0.8-1.8,1.8v6.7v8.6v6.7c0,1,0.8,1.8,1.8,1.8h22c1,0,1.8-0.8,1.8-1.8v-6.8v-8.6V233
		C68.7,232,67.9,231.2,66.9,231.2z"/>
</g>
</svg>
