<?xml version="1.0" encoding="utf-8"?>
<!-- Generator: Adobe Illustrator 25.4.1, SVG Export Plug-In . SVG Version: 6.00 Build 0)  -->
<svg version="1.1" id="Layer_1" xmlns="http://www.w3.org/2000/svg" xmlns:xlink="http://www.w3.org/1999/xlink" x="0px" y="0px"
	 viewBox="0 0 300 300" style="enable-background:new 0 0 300 300;" xml:space="preserve">
<style type="text/css">
	.st0{fill:#FFFFFF;}
</style>
<path class="st0" d="M285,300H15c-8.3,0-15-6.7-15-15V15C0,6.7,6.7,0,15,0h270c8.3,0,15,6.7,15,15v270C300,293.3,293.3,300,285,300z
	"/>
<g>
	<rect x="89.2" y="24" width="9.4" height="9.4"/>
	<polygon points="117.3,24.1 117.3,24 117.3,14.7 107.9,14.7 107.9,24 107.9,24.1 107.9,33.4 117.3,33.4 	"/>
	<rect x="247.9" y="89.2" width="9.4" height="9.4"/>
	<rect x="126.7" y="98.6" width="9.4" height="9.4"/>
	<polygon points="154.6,107.9 145.2,107.9 145.2,117.3 154.6,117.3 164,117.3 164,107.9 	"/>
	<path d="M275.9,107.9v-9.3v-9.4h-9.4v9.4v9.3h-9.3h-0.1h-9.3v-9.3h-9.3v-9.4h-9.4v9.4h-9.3v-9.4h-9.4h-9.3V80h9.3v-9.3v-0.1v-9.2
		v-0.1V52h-9.4v9.3v0.1v9.2v0.1V80H192v-9.3v-0.1v-9.3h-9.4h-9.3V52v-9.4h9.3v-9.3h9.3v9.3h-9.3V52h9.4v-9.4h9.3v-9.3h9.3v-9.3V24
		v-9.3h-9.4V24v0.1v9.2H192v-9.2V24v-9.3h-9.4V24h-9.4v9.3H164V24h-9.4v-9.3h-9.4V24H136v-9.3h-9.4v9.4h9.3v9.2h-9.3v9.4V52h9.4
		v-9.4v-9.3h9.2v9.3h9.4v-9.3h9.4v9.3h-9.4V52h9.4v9.3h-9.4V52h-9.4v9.3H136h-0.1h-9.3h-9.4v9.3H108v-9.2v-0.1V52h9.3v-9.4H108h-0.1
		h-9.3h-9.4V52h9.4v9.3h-9.4v9.3v0.1V80h9.4v-9.3h9.3V80h-9.3v9.3h-9.3h-0.1H80h-9.4v9.4H80h9.3h0.1h9.3h9.3v9.3v0.1v9.3h9.4V108
		v-0.1v-9.3H108v-9.3h9.3v9.3h9.4v-9.3v-0.1V80h-9.4v-9.3h9.4V80h9.4v-9.3h9.2V80v9.3v0.1v9.3h9.4h9.4h9.4v-9.3h9.3v9.3h9.4v-9.3
		h9.2v9.3h9.4v9.3h-9.4v9.4H192h-0.1h-9.3v9.4h9.3h0.1h9.2v9.4h9.4h9.4v9.2h-9.4v9.4h9.4v-9.3h9.3h0.1h9.2v9.3h-9.2h-0.1h-9.3v9.4
		h9.3v9.3h-9.3V164h-9.4v-9.4h-9.4v9.4v9.3v0.1v9.3l0,0v9.3H192v-9.3l0,0v-9.3v-0.1V164h-9.4v9.3v0.1v9.3h-9.3h-0.1H164v-9.3v-0.1
		V164h-9.4v-9.4h-9.3v-9.4H136h-0.1h-9.3h-9.4v9.4h-9.4v9.4h9.4v9.4h9.4v9.3h9.3v9.3h-9.3v9.3v0.1v9.3h9.4v-9.3v-0.1V192h9.2v9.3
		h9.4v9.3h9.4v-9.4h-9.4V192h9.4h9.3v9.3h9.4v9.3v9.4h9.3h0.1h9.2v9.3H192h-0.1h-9.3v9.3h-9.4v9.4h9.4v9.3h-9.3h-0.1H164h-9.4v-9.3
		h-9.4v9.3v0.1v9.3h9.4h9.4h9.3h0.1h9.3h9.3v9.4v9.4h9.4v-9.4h9.3h9.4v-9.4h-9.4h-9.3h-0.1H192v-9.3h9.2h0.1h9.3h9.4h9.3h0.1h9.2
		v9.3h-9.3v9.4h-9.3v9.4h9.4v-9.4h9.2v9.4h9.4h9.3h0.1h9.3v-9.4h-9.3h-0.1h-9.3h-9.3v-9.4h9.3v-9.3h9.3v9.3h9.4h9.4v-9.4h-9.4h-9.3
		v-9.3h-9.4v-9.3v-0.1v-9.2h9.3v9.3h9.4v9.3h9.4h9.4v-9.3v-0.1v-9.3h-9.4h-9.4v-9.3h-9.3h-0.1h-9.3v-9.4v-9.3v-0.1V192h9.3h0.1h9.3
		v9.2v0.1v9.3v9.4h9.4v-9.4v-9.3h9.4V192v-0.1v-9.3l0,0v-9.4h-9.4V164h-9.4v9.3v0.1v9.3h-9.3h-0.1h-9.3v9.3h-9.3v-9.3h-9.3v-9.3h9.2
		h0.1h9.3V164v-9.4h9.3v9.4h9.4v-9.4h9.4v-9.3v-0.1v-9.3h-9.4v9.3h-9.3h-0.1h-9.3V136h9.4v-9.4h-9.4v-9.4h-9.3V108h9.3v9.3h9.3h0.1
		h9.3h9.4v9.4h9.4v-9.4v-9.4H275.9z M154.6,33.3h-9.3v-9.2h9.3V33.3z M154.6,61.4v9.2h-9.3v-9.2H154.6z M154.6,89.2V80v-9.3h9.4V80
		h9.3v9.3H164H154.6z M173.3,80v-9.3h9.3V80h9.3v9.3h-9.3V80H173.3z M126.7,164v-9.4h9.3h0.1h9.2v9.4v9.3v0.1v9.3H136v-9.4h-9.4V164
		z M154.6,191.9h-9.3v-9.3h9.3V191.9z M238.5,98.6v9.3h-9.2v-9.3H238.5z M219.9,135.9v-9.3h-9.4h-9.3v-9.4h9.3h9.4V108h9.3v9.3h-9.3
		v9.4h9.3v9.3H219.9z M229.3,201.2V192h9.2v9.2H229.3z M219.9,201.2h-9.4h-9.3V192h9.3h9.4V201.2z M229.2,191.9h-9.3v-9.3h9.3V191.9
		z M210.5,173.3h9.4v9.3h-9.4V173.3z M182.6,192h9.3v9.2h-9.3V192z M192,210.5v-9.3h9.2v9.3H192z M192,247.9v-9.3h9.2v9.3H192z
		 M238.5,229.2v0.1v9.2h-9.2h-0.1h-9.3h-9.4v-9.2v-0.1v-9.3v-9.4h9.4h9.3h0.1h9.2v9.4V229.2z M238.5,126.7h-9.2v-9.4h9.2V126.7z"/>
	<polygon points="42.7,145.2 42.7,136 42.7,135.9 42.7,126.7 42.7,117.3 42.7,107.9 33.4,107.9 33.3,107.9 24.1,107.9 24.1,98.6 
		33.3,98.6 33.4,98.6 42.7,98.6 52,98.6 61.4,98.6 61.4,89.2 52,89.2 42.7,89.2 33.4,89.2 33.3,89.2 24.1,89.2 24,89.2 14.7,89.2 
		14.7,98.6 14.7,107.9 14.7,108 14.7,117.3 14.7,126.7 24,126.7 24,135.9 14.7,135.9 14.7,145.3 24.1,145.3 24.1,136 33.3,136 
		33.3,145.2 33.3,145.3 33.3,154.6 42.7,154.6 42.7,145.3 	"/>
	<polygon points="164,145.3 173.2,145.3 173.2,154.6 164,154.6 164,164 173.3,164 173.3,154.6 182.6,154.6 192,154.6 192,145.3 
		192,145.2 192,135.9 182.6,135.9 182.6,145.2 173.3,145.2 173.3,136 173.3,135.9 173.3,126.7 173.3,117.3 182.6,117.3 182.6,107.9 
		173.2,107.9 173.2,117.3 164,117.3 164,126.7 154.6,126.7 145.3,126.7 145.2,126.7 136,126.7 136,117.3 126.7,117.3 126.7,126.7 
		126.7,136 135.9,136 136,136 145.2,136 145.3,136 154.6,136 154.6,145.2 154.6,145.3 154.6,154.6 164,154.6 	"/>
	<rect x="42.7" y="154.6" width="9.4" height="9.4"/>
	<rect x="80" y="154.6" width="9.4" height="9.4"/>
	<rect x="275.9" y="154.6" width="9.4" height="9.4"/>
	<path d="M89.3,173.2H80V164h-9.3v-9.4H80v-9.3h9.4V136h9.3h9.3h0.1h9.3v-9.4H108h-0.1h-9.3h-9.3h-0.1H80h-9.3v-9.4H80h9.3h0.1h9.3
		v-9.4h-9.3h-0.1H80h-9.4v9.4h-9.3v9.4H52v9.3v0.1v9.2v0.1v9.3h9.3v9.4v9.3H52v9.4l0,0v9.3h-9.4h-9.4v9.4h9.4v9.3H52v-9.3v-0.1V192
		h9.3v9.2v0.1v9.3h9.3h0.1H80v-9.4h-9.3V192H80v-9.4h9.4C89.3,182.6,89.3,173.2,89.3,173.2z M80,136v9.2h-9.3V136H80z M61.4,145.3
		h9.2v9.3h-9.2V145.3z M80,182.6h-9.3v-9.3H80V182.6z"/>
	<polygon points="24.1,201.3 24.1,201.2 24.1,192 24.1,191.9 24.1,182.6 33.4,182.6 33.4,173.2 24.1,173.2 24.1,164 24.1,154.6 
		14.7,154.6 14.7,164 14.7,173.2 14.7,173.3 14.7,182.6 14.7,182.6 14.7,191.9 14.7,192 14.7,201.2 14.7,201.3 14.7,210.5 
		24.1,210.5 	"/>
	<rect x="219.9" y="219.9" width="9.4" height="9.4"/>
	<path d="M164,238.5h-9.4v-9.2h9.4h9.4v-9.4v-9.4H164v9.4h-9.4v9.3h-9.3v-9.3H136h-0.1h-9.3h-9.4v9.3v0.1v9.2H108v-9.2v-0.1v-9.3
		h9.3v-9.4v-9.3v-0.1v-9.3H108v-9.3l0,0v-9.4h-9.4v9.4l0,0v9.3h-9.4v9.4h9.4V192h9.3v9.2v0.1v9.3h-9.3h-9.4v9.4v9.4h9.4v9.2h-9.4
		v9.4v9.3v0.1v9.3v9.4v9.4h9.4h9.4v-9.4h9.3v-9.4v-9.3v-0.1v-9.3h9.4v9.3v0.1v9.3v9.4h9.4v-9.4v-9.3v-0.1v-9.3v-9.4h-9.4v-9.2h9.3
		h0.1h9.2v9.3h9.4v9.3h9.4L164,238.5L164,238.5z M98.6,247.9h9.3v9.3h-9.3V247.9z M98.6,275.9v-9.4h9.3v9.4H98.6z"/>
	<rect x="275.9" y="266.5" width="9.4" height="9.4"/>
	<polygon points="145.2,275.9 145.2,285.3 154.6,285.3 164,285.3 164,275.9 154.6,275.9 	"/>
	<path d="M16.7,80H78c1.1,0,2-0.9,2-2v-7.3v-9.4V52v-9.3v-9.5V24v-7.3c0-1.1-0.9-2-2-2c0-0.1-61.3-0.1-61.3-0.1c-1.1,0-2,0.9-2,2
		v7.3v9.4v9.3v9.3v9.3v9.4V78C14.7,79.1,15.6,80,16.7,80z M24,61.1v-9.3v-9.3v-9.3v-8.2c0-0.7,0.5-1.1,1.1-1.1h44.4
		c0.7,0,1.1,0.5,1.1,1.1v8.2v9.3v9.3v9.3v8.2c0,0.7-0.5,1.1-1.1,1.1H25.1c-0.7,0-1.1-0.5-1.1-1.1V61.1z"/>
	<path d="M35.3,61.2h24c1.1,0,2-0.9,2-2v-7.3v-9.3v-7.3c0-1.1-0.9-2-2-2h-24c-1.1,0-2,0.9-2,2v7.3v9.3v7.3
		C33.4,60.3,34.3,61.2,35.3,61.2z"/>
	<path d="M221.9,80h61.3c1.1,0,2-0.9,2-2v-7.3v-9.4V52v-9.3v-9.5V24v-7.3c0-1.1-0.9-2-2-2c0-0.1-61.3-0.1-61.3-0.1c-1.1,0-2,0.9-2,2
		v7.3v9.4v9.3v9.3v9.3v9.4V78C219.9,79.1,220.8,80,221.9,80z M229.3,61.1v-9.3v-9.3v-9.3v-8.2c0-0.7,0.5-1.1,1.1-1.1h44.4
		c0.7,0,1.1,0.5,1.1,1.1v8.2v9.3v9.3v9.3v8.2c0,0.7-0.5,1.1-1.1,1.1h-44.4c-0.7,0-1.1-0.5-1.1-1.1V61.1z"/>
	<path d="M240.5,61.2h24c1.1,0,2-0.9,2-2v-7.3v-9.3v-7.3c0-1.1-0.9-2-2-2h-24c-1.1,0-2,0.9-2,2v7.3v9.3v7.3
		C238.6,60.3,239.5,61.2,240.5,61.2z"/>
	<path d="M78,219.8H16.7c-1.1,0-2,0.9-2,2v7.3v9.3v9.4v9.4v9.3v9.4v7.3c0,1.1,0.9,2,2,2H78c1.1,0,2-0.9,2-2v-7.3v-9.4v-9.3v-9.4
		v-9.4v-9.3v-7.3C80,220.7,79.1,219.8,78,219.8z M70.6,238.5v9.4v9.4v9.3v8.2c0,0.7-0.5,1.1-1.1,1.1H25.1c-0.7,0-1.1-0.5-1.1-1.1
		v-8.2v-9.3v-9.4v-9.4v-8.2c0-0.7,0.5-1.1,1.1-1.1h44.4c0.7,0,1.1,0.5,1.1,1.1V238.5z"/>
	<path d="M59.3,238.6h-24c-1.1,0-2,0.9-2,2v7.3v9.4v7.3c0,1.1,0.9,2,2,2h24c1.1,0,2-0.9,2-2v-7.4v-9.4v-7.2
		C61.3,239.5,60.4,238.6,59.3,238.6z"/>
</g>
</svg>
