<svg width="100" height="100" viewBox="0 0 100 100" fill="none" xmlns="http://www.w3.org/2000/svg">
<rect width="100" height="100" rx="30" fill="#2E2C31"/>
<path d="M36.3889 85C32.1889 85 28.4815 84.2033 25.2667 82.6099C22.0519 81.0165 19.537 78.7363 17.7222 75.7692C15.9074 72.8022 15 69.2308 15 65.0549V62.7473H25.1111V65.0549C25.1111 68.5165 26.1222 71.1264 28.1444 72.8846C30.1667 74.5879 32.9148 75.4396 36.3889 75.4396C39.9148 75.4396 42.5333 74.6978 44.2444 73.2143C46.0074 71.7308 46.8889 69.8352 46.8889 67.5275C46.8889 65.9341 46.4482 64.6429 45.5667 63.6538C44.737 62.6648 43.4926 61.8681 41.8333 61.2637C40.2259 60.6044 38.2556 60 35.9222 59.4505L34.1333 59.0385C30.4 58.1593 27.1852 57.0604 24.4889 55.7418C21.8444 54.3681 19.7963 52.5824 18.3444 50.3846C16.9444 48.1868 16.2444 45.3297 16.2444 41.8132C16.2444 38.2967 17.0222 35.3022 18.5778 32.8297C20.1852 30.3022 22.4148 28.3791 25.2667 27.0604C28.1704 25.6868 31.5667 25 35.4556 25C39.3444 25 42.7926 25.7143 45.8 27.1429C48.8593 28.5165 51.2444 30.6044 52.9556 33.4066C54.7185 36.1538 55.6 39.6154 55.6 43.7912V46.2637H45.4889V43.7912C45.4889 41.5934 45.0741 39.8352 44.2444 38.5165C43.4667 37.1429 42.3259 36.1538 40.8222 35.5495C39.3185 34.8901 37.5296 34.5604 35.4556 34.5604C32.3444 34.5604 30.037 35.1923 28.5333 36.456C27.0815 37.6648 26.3556 39.3407 26.3556 41.4835C26.3556 42.9121 26.6926 44.1209 27.3667 45.1099C28.0926 46.0989 29.1556 46.9231 30.5556 47.5824C31.9556 48.2418 33.7444 48.8187 35.9222 49.3132L37.7111 49.7253C41.6 50.6044 44.9704 51.7308 47.8222 53.1044C50.7259 54.478 52.9815 56.2912 54.5889 58.544C56.1963 60.7967 57 63.6813 57 67.1978C57 70.7143 56.1444 73.8187 54.4333 76.511C52.7741 79.1484 50.3889 81.2363 47.2778 82.7747C44.2185 84.2582 40.5889 85 36.3889 85Z" fill="#F6F6F6"/>
</svg>
