
<svg xmlns="http://www.w3.org/2000/svg" xml:space="preserve" viewBox="0 0 500 500"><circle cx="250" cy="250" r="250" fill="#e3dbd7"/><path fill="#212121" d="M350.33 160.64a61.315 61.315 0 0 0-17-21.75 79.573 79.573 0 0 0-27.23-14.25 117.876 117.876 0 0 0-36.55-5.19c-14.43-.24-28.8 1.82-42.58 6.1a89.67 89.67 0 0 0-31.07 16.81 69.525 69.525 0 0 0-19.01 25.59 80.595 80.595 0 0 0-6.4 31.91 67.647 67.647 0 0 0 5.85 29.24 66.468 66.468 0 0 0 15.35 20.47c6.48 5.64 13.9 10.1 21.93 13.16 8.13 3.13 16.59 5.34 25.22 6.58 18.06 2.68 30.91 6.58 38.56 11.7a24.186 24.186 0 0 1 11.51 21.57 32.6 32.6 0 0 1-13.52 27.67c-9.26 6.68-21.93 10.03-38.01 10.05-14.84 0-25.99-3.29-33.44-9.87a35.103 35.103 0 0 1-10.97-27.41c-.05-5.27.44-10.54 1.46-15.72l1.46-6.21h-48.43l-1.83 8.41c-.69 3.26-1.18 6.55-1.46 9.87-.29 3.16-.41 6.33-.37 9.5a81.74 81.74 0 0 0 5.48 29.9 67.772 67.772 0 0 0 16.63 24.31 81.393 81.393 0 0 0 28.33 16.45l3.29 1.06 106.22-13.6c2.52-1.75 4.97-3.66 7.31-5.56 9.06-7.7 16.3-17.31 21.2-28.14a87.358 87.358 0 0 0 7.31-37.28c0-20.76-6.52-36.6-19.55-47.52-13.04-10.92-30.84-18.08-53.4-21.49-16.08-2.7-27.72-6.48-34.91-11.33a23.031 23.031 0 0 1-10.78-20.1c-.09-4.76 1.18-9.45 3.66-13.52 2.48-3.96 5.86-7.28 9.87-9.69 4.4-2.68 9.22-4.59 14.25-5.67a71.1 71.1 0 0 1 16.45-1.83c14.15 0 24.6 3 31.43 8.96a29.245 29.245 0 0 1 10.23 23.21c-.04 3.32-.4 6.62-1.1 9.87l-1.1 4.75h48.25l1.46-6.58c.69-3.01 1.17-6.06 1.46-9.14.26-2.67.37-5.37.37-8.04.15-9.42-1.85-18.73-5.83-27.25z"/></svg>