<svg width="100" height="100" viewBox="0 0 100 100" fill="none" xmlns="http://www.w3.org/2000/svg">
<rect width="100" height="100" rx="50" fill="black"/>
<path d="M70.3075 32.2418C69.5195 30.5522 68.3567 29.0646 66.9075 27.8918C65.2947 26.597 63.4449 25.6288 61.4615 25.0418C59.0945 24.314 56.6275 23.9638 54.1515 24.0038C51.2655 23.9558 48.3915 24.3678 45.6355 25.2238C43.3617 25.9214 41.2495 27.0642 39.4215 28.5858C37.7749 29.9744 36.4733 31.7264 35.6195 33.7038C34.7633 35.722 34.3277 37.8936 34.3395 40.0858C34.2897 42.0978 34.6895 44.0958 35.5095 45.9338C36.2581 47.4844 37.3007 48.8748 38.5795 50.0278C39.8755 51.1558 41.3595 52.0478 42.9655 52.6598C44.5915 53.2858 46.2835 53.7278 48.0095 53.9758C51.6215 54.5118 54.1915 55.2918 55.7215 56.3158C56.4539 56.7656 57.0531 57.4022 57.4577 58.1606C57.8623 58.9188 58.0577 59.771 58.0235 60.6298C58.0637 61.7036 57.8379 62.7708 57.3663 63.7362C56.8945 64.7018 56.1913 65.5356 55.3195 66.1638C53.4675 67.4998 50.9335 68.1698 47.7175 68.1738C44.7495 68.1738 42.5195 67.5158 41.0295 66.1998C40.2877 65.5002 39.7071 64.6474 39.3281 63.7006C38.9493 62.754 38.7811 61.736 38.8355 60.7178C38.8255 59.6618 38.9235 58.6098 39.1275 57.5738L39.4195 56.3318H29.7335L29.3675 58.0138C29.2295 58.6658 29.1315 59.3238 29.0755 59.9878C29.0175 60.6198 28.9935 61.2538 29.0015 61.8878C28.9897 63.9322 29.3615 65.9606 30.0975 67.8678C30.8363 69.7128 31.9719 71.3726 33.4235 72.7298C35.0697 74.1992 36.9975 75.3184 39.0895 76.0198L39.7475 76.2318L60.9915 73.5118C61.4955 73.1618 61.9855 72.7798 62.4535 72.3998C64.2655 70.8598 65.7135 68.9378 66.6935 66.7718C67.7219 64.4238 68.2211 61.8782 68.1555 59.3158C68.1555 55.1638 66.8515 51.9958 64.2455 49.8118C61.6375 47.6278 58.0775 46.1958 53.5655 45.5138C50.3495 44.9738 48.0215 44.2178 46.5835 43.2478C45.9061 42.8226 45.3511 42.2284 44.9729 41.5234C44.5949 40.8186 44.4069 40.0274 44.4275 39.2278C44.4095 38.2758 44.6635 37.3378 45.1595 36.5238C45.6555 35.7318 46.3315 35.0678 47.1335 34.5858C48.0135 34.0498 48.9775 33.6678 49.9835 33.4518C51.0623 33.2022 52.1663 33.0794 53.2735 33.0858C56.1035 33.0858 58.1935 33.6858 59.5595 34.8778C60.2271 35.4484 60.7577 36.1618 61.1119 36.9654C61.4661 37.769 61.6349 38.642 61.6055 39.5198C61.5975 40.1838 61.5255 40.8438 61.3855 41.4938L61.1655 42.4438H70.8155L71.1075 41.1278C71.2455 40.5258 71.3415 39.9158 71.3995 39.2998C71.4515 38.7658 71.4735 38.2258 71.4735 37.6918C71.4995 35.8118 71.0995 33.9498 70.3035 32.2458L70.3075 32.2418Z" fill="white"/>
</svg>
