<svg width="50" height="50" viewBox="0 0 50 50" fill="none" xmlns="http://www.w3.org/2000/svg">
<g clip-path="url(#clip0_226_121)">
<path d="M25 50C38.8071 50 50 38.8071 50 25C50 11.1929 38.8071 0 25 0C11.1929 0 0 11.1929 0 25C0 38.8071 11.1929 50 25 50Z" fill="#fff6f5"/>
<path d="M35.033 16.064C34.639 15.2192 34.0576 14.4754 33.333 13.889C32.5266 13.2416 31.6017 12.7575 30.61 12.464C29.4265 12.1001 28.193 11.925 26.955 11.945C25.512 11.921 24.075 12.127 22.697 12.555C21.5601 12.9038 20.504 13.4752 19.59 14.236C18.7667 14.9303 18.1159 15.8063 17.689 16.795C17.2609 17.8041 17.0431 18.8899 17.049 19.986C17.0241 20.992 17.224 21.991 17.634 22.91C18.0083 23.6853 18.5296 24.3805 19.169 24.957C19.817 25.521 20.559 25.967 21.362 26.273C22.175 26.586 23.021 26.807 23.884 26.931C25.69 27.199 26.975 27.589 27.74 28.101C28.1062 28.3259 28.4058 28.6442 28.6081 29.0234C28.8104 29.4025 28.9081 29.8286 28.891 30.258C28.9111 30.7949 28.7982 31.3285 28.5624 31.8112C28.3265 32.294 27.9749 32.7109 27.539 33.025C26.613 33.693 25.346 34.028 23.738 34.03C22.254 34.03 21.139 33.701 20.394 33.043C20.0231 32.6932 19.7328 32.2668 19.5433 31.7934C19.3539 31.3201 19.2698 30.8111 19.297 30.302C19.292 29.774 19.341 29.248 19.443 28.73L19.589 28.109H14.746L14.563 28.95C14.494 29.276 14.445 29.605 14.417 29.937C14.388 30.253 14.376 30.57 14.38 30.887C14.3741 31.9092 14.56 32.9234 14.928 33.877C15.2974 34.7995 15.8652 35.6294 16.591 36.308C17.4141 37.0427 18.378 37.6023 19.424 37.953L19.753 38.059L30.375 36.699C30.627 36.524 30.872 36.333 31.106 36.143C32.012 35.373 32.736 34.412 33.226 33.329C33.7402 32.155 33.9898 30.8822 33.957 29.601C33.957 27.525 33.305 25.941 32.002 24.849C30.698 23.757 28.918 23.041 26.662 22.7C25.054 22.43 23.89 22.052 23.171 21.567C22.8323 21.3544 22.5548 21.0573 22.3657 20.7048C22.1767 20.3524 22.0827 19.9568 22.093 19.557C22.084 19.081 22.211 18.612 22.459 18.205C22.707 17.809 23.045 17.477 23.446 17.236C23.886 16.968 24.368 16.777 24.871 16.669C25.4104 16.5442 25.9624 16.4828 26.516 16.486C27.931 16.486 28.976 16.786 29.659 17.382C29.9928 17.6673 30.2581 18.024 30.4352 18.4258C30.6123 18.8276 30.6967 19.2641 30.682 19.703C30.678 20.035 30.642 20.365 30.572 20.69L30.462 21.165H35.287L35.433 20.507C35.502 20.206 35.55 19.901 35.579 19.593C35.605 19.326 35.616 19.056 35.616 18.789C35.629 17.849 35.429 16.918 35.031 16.066L35.033 16.064Z" fill="#212121"/>
</g>
<defs>
<clipPath id="clip0_226_121">
<rect width="50" height="50" fill="white"/>
</clipPath>
</defs>
</svg>
