<svg xmlns="http://www.w3.org/2000/svg" width="40" height="40" fill="none"><g clip-path="url(#a)"><path fill="#000" d="M11.717.14c-2.128.1-3.581.44-4.852.94a9.788 9.788 0 0 0-3.538 2.312 9.797 9.797 0 0 0-2.3 3.545C.534 8.21.2 9.664.107 11.794c-.094 2.129-.115 2.813-.105 8.244.01 5.432.035 6.113.138 8.246.102 2.128.44 3.58.94 4.851a9.797 9.797 0 0 0 2.312 3.538 9.787 9.787 0 0 0 3.548 2.3c1.272.492 2.727.827 4.856.92 2.128.093 2.814.115 8.243.105 5.43-.01 6.113-.035 8.247-.136 2.133-.101 3.578-.442 4.85-.939a9.802 9.802 0 0 0 3.537-2.313 9.802 9.802 0 0 0 2.3-3.547c.492-1.273.827-2.727.92-4.855.093-2.134.115-2.816.104-8.246-.01-5.43-.035-6.111-.136-8.244s-.44-3.582-.939-4.853a9.819 9.819 0 0 0-2.312-3.538 9.76 9.76 0 0 0-3.547-2.3C31.79.536 30.336.2 28.207.108c-2.129-.091-2.814-.115-8.245-.105-5.432.01-6.112.034-8.245.138Zm.233 36.155c-1.95-.084-3.008-.409-3.714-.68a6.228 6.228 0 0 1-2.303-1.491c-.703-.697-1.135-1.365-1.5-2.297-.274-.706-.604-1.763-.695-3.713-.1-2.108-.12-2.74-.132-8.08-.012-5.34.009-5.972.101-8.08.083-1.949.41-3.009.68-3.714.36-.936.794-1.6 1.492-2.303.698-.703 1.364-1.135 2.297-1.5.705-.275 1.762-.603 3.712-.695 2.109-.1 2.74-.12 8.08-.132 5.338-.012 5.972.008 8.082.101 1.948.085 3.009.408 3.713.68.935.36 1.6.793 2.303 1.492.703.7 1.136 1.363 1.5 2.298.276.703.604 1.76.696 3.71.1 2.11.123 2.742.132 8.08.01 5.339-.009 5.973-.101 8.08-.085 1.95-.409 3.01-.68 3.716-.36.934-.794 1.6-1.493 2.302-.698.703-1.363 1.136-2.297 1.5-.704.275-1.763.603-3.71.696-2.11.1-2.741.12-8.082.132-5.341.011-5.971-.01-8.08-.102M28.255 9.311a2.4 2.4 0 1 0 4.8-.008 2.4 2.4 0 0 0-4.8.008ZM9.73 20.02c.011 5.671 4.617 10.259 10.288 10.248 5.671-.01 10.262-4.617 10.251-10.289-.01-5.672-4.618-10.26-10.29-10.25-5.672.012-10.26 4.619-10.25 10.29Zm3.602-.008a6.667 6.667 0 1 1 13.334-.027 6.667 6.667 0 0 1-13.334.027Z"/></g><defs><clipPath id="a"><path fill="#fff" d="M0 0h40v40H0z"/></clipPath></defs></svg>