<svg xmlns="http://www.w3.org/2000/svg" width="40" height="40" fill="none"><path fill="#000" d="M40 36.001C40 38.21 38.195 40 35.967 40H4.033C1.805 40 0 38.21 0 36.001V4C0 1.79 1.805 0 4.033 0h31.934C38.195 0 40 1.79 40 3.999V36Z"/><path fill="#212121" d="M7.454 14.539h5.381v17.11H7.454V14.54Zm5.558-4.759c0 1.47-1.098 2.66-2.903 2.66-1.7 0-2.797-1.19-2.797-2.66 0-1.504 1.133-2.659 2.867-2.659 1.736 0 2.798 1.155 2.833 2.66ZM16.056 19.997c0-2.134-.07-3.918-.141-5.458h4.672l.249 2.38h.106c.708-1.12 2.443-2.765 5.346-2.765 3.54 0 6.196 2.345 6.196 7.383V31.65h-5.382v-9.483c0-2.204-.779-3.709-2.726-3.709-1.487 0-2.372 1.015-2.761 1.994-.142.35-.178.84-.178 1.33v9.867h-5.381V19.998Z"/></svg>