<svg width="40" height="32" viewBox="0 0 40 32" fill="#212121" xmlns="http://www.w3.org/2000/svg">
<path d="M40 9.216V25.5C40.0001 27.1603 39.3649 28.7577 38.2247 29.9645C37.0844 31.1713 35.5256 31.896 33.868 31.99L33.5 32H6.5C4.83972 32.0001 3.24234 31.3649 2.03554 30.2247C0.828734 29.0844 0.103997 27.5256 0.0100002 25.868L0 25.5V9.216L19.304 19.328C19.5188 19.4405 19.7576 19.4992 20 19.4992C20.2424 19.4992 20.4812 19.4405 20.696 19.328L40 9.216ZM6.5 4.72102e-08H33.5C35.1112 -0.000194029 36.665 0.597991 37.8601 1.67853C39.0552 2.75908 39.8064 4.24496 39.968 5.848L20 16.308L0.0320001 5.848C0.187047 4.30862 0.8861 2.87503 2.0035 1.80493C3.1209 0.734817 4.58336 0.098374 6.128 0.0100003L6.5 4.72102e-08Z" fill="#212121"/>
</svg>
