<svg width="40" height="40" viewBox="0 0 40 40" fill="none" xmlns="http://www.w3.org/2000/svg">
<g clip-path="url(#clip0_257_245)">
<mask id="mask0_257_245" style="mask-type:luminance" maskUnits="userSpaceOnUse" x="0" y="0" width="40" height="40">
<path d="M0 0H40V40H0V0Z" fill="white"/>
</mask>
<g mask="url(#mask0_257_245)">
<mask id="mask1_257_245" style="mask-type:luminance" maskUnits="userSpaceOnUse" x="0" y="0" width="40" height="40">
<path d="M40 0H0V40H40V0Z" fill="white"/>
</mask>
<g mask="url(#mask1_257_245)">
<path d="M19.18 40H20.845C29.886 40 34.408 40 37.216 37.192C40.024 34.384 40 29.864 40 20.845V19.155C40 10.138 40 5.616 37.216 2.808C34.432 0 29.886 0 20.845 0H19.179C10.136 0 5.616 0 2.808 2.808C0 5.616 0 10.134 0 19.155V20.845C0 29.864 0 34.384 2.808 37.192C5.616 40 10.137 40 19.18 40Z" fill="#2E2C31"/>
<path d="M21.4638 28.8396C12.4438 28.8396 6.97079 22.5816 6.75879 12.1836H11.3258C11.4688 19.8216 14.9438 23.0636 17.6078 23.7236V12.1836H21.9878V18.7736C24.5568 18.4886 27.2448 15.4906 28.1508 12.1836H32.4558C31.7658 16.2526 28.8398 19.2506 26.7698 20.4876C28.8398 21.4876 32.1708 24.1046 33.4558 28.8396H28.7218C27.7218 25.6746 25.2698 23.2236 21.9868 22.8896V28.8396H21.4638Z" fill="#F6F6F6"/>
</g>
</g>
</g>
<defs>
<clipPath id="clip0_257_245">
<rect width="40" height="40" fill="white"/>
</clipPath>
</defs>
</svg>
