<?xml version="1.0" encoding="utf-8"?>
<!-- Generator: Adobe Illustrator 25.4.1, SVG Export Plug-In . SVG Version: 6.00 Build 0)  -->
<svg version="1.1" id="Layer_1" xmlns="http://www.w3.org/2000/svg" xmlns:xlink="http://www.w3.org/1999/xlink" x="0px" y="0px"
	 viewBox="0 0 50 50" style="enable-background:new 0 0 50 50;" xml:space="preserve">
<style type="text/css">
	.st0{fill:#FFFFFF;}
</style>
<g id="Layer_x0020_1">
	<g id="_1421344023328">
		<path class="st0" d="M29.8,30.2c-0.8,3.4-6.6,1.6-8.4,1.1l1.5-6C24.7,25.8,30.6,26.7,29.8,30.2z"/>
		<path class="st0" d="M30.6,21.4c-0.8,3.1-5.5,1.5-7.1,1.1l1.4-5.5C26.4,17.4,31.4,18.2,30.6,21.4z"/>
		<path class="st0" d="M31,0.7C17.7-2.6,4.1,5.6,0.8,19c-3.3,13.4,4.8,27,18.2,30.3c13.4,3.3,27-4.8,30.3-18.2h0
			C52.6,17.7,44.4,4.1,31,0.7z M36,21.4c-0.4,2.4-1.7,3.6-3.5,4c2.5,1.3,3.7,3.2,2.5,6.7c-1.5,4.2-5,4.6-9.7,3.7l-1.1,4.5l-2.7-0.7
			l1.1-4.5c-0.7-0.2-1.4-0.4-2.2-0.6l-1.1,4.5l-2.7-0.7l1.1-4.6c-0.6-0.2-1.3-0.3-2-0.5l-3.6-0.9l1.4-3.1c0,0,2,0.5,2,0.5
			c0.8,0.2,1.1-0.3,1.3-0.7l1.8-7.2c0.1,0,0.2,0,0.3,0.1c-0.1,0-0.2-0.1-0.3-0.1l1.3-5.1c0-0.6-0.2-1.3-1.3-1.6c0,0-2-0.5-2-0.5
			l0.7-2.9l3.8,0.9l0,0c0.6,0.1,1.2,0.3,1.8,0.4L24,8.7l2.7,0.7l-1.1,4.4c0.7,0.2,1.5,0.3,2.2,0.5l1.1-4.4l2.7,0.7l-1.1,4.5
			C34,16.3,36.5,18.1,36,21.4L36,21.4z"/>
	</g>
</g>
</svg>
