<svg xmlns="http://www.w3.org/2000/svg" viewBox="0 0 50 50" style="enable-background:new 0 0 50 50" xml:space="preserve"><path d="M25.2 29.1h-3.4c-.2 0-.4-.1-.5-.2-.1-.1-.2-.3-.2-.5l.3-3.1c0-.3.3-.6.7-.6h3.4c.2 0 .4.1.5.2.1.1.2.3.2.5l-.3 3.1c0 .4-.3.6-.7.6zm.6-6h-3.4c-.4 0-.7-.3-.7-.7l.9-10.3c0-.3.3-.6.7-.6h3.5c.4 0 .7.3.7.7l-1 10.3c-.1.4-.4.6-.7.6zm20.3-12c.4.4.5 1 .5 1.5L45.2 28c0 .5-.3 1-.6 1.3l-11 10.6c-.4.4-.9.6-1.5.6H20.3L10 50l.8-9.5H5.5c-.6 0-1.2-.2-1.6-.7-.4-.4-.6-1-.5-1.6L6.7 1.9C6.8.8 7.7 0 8.8 0h26.8c.6 0 1.2.3 1.6.7l8.9 10.4zm-8.2 14 .9-9.5c0-.6-.2-1.1-.5-1.5l-5-5.8c-.4-.5-1-.7-1.6-.7h-16c-1.1 0-2 .8-2.1 1.9l-1.9 21.3c0 .6.2 1.2.6 1.6.4.4 1 .7 1.5.7h15.6c.5 0 1.1-.2 1.5-.6l6.4-6c.3-.5.5-.9.6-1.4z" style="fill:#fff"/></svg>