<svg xmlns="http://www.w3.org/2000/svg" viewBox="0 0 50 50" style="enable-background:new 0 0 50 50" xml:space="preserve"><path d="M14.6.2c-2.6.1-4.4.5-6 1.1-1.7.7-3.1 1.5-4.4 2.9S1.9 7 1.3 8.7c-.6 1.6-1 3.4-1.2 6.1S0 18.3 0 25s0 7.6.2 10.3c.1 2.7.6 4.5 1.2 6.1.6 1.6 1.5 3 2.9 4.4s2.8 2.2 4.4 2.9c1.6.6 3.4 1 6.1 1.2s3.5.1 10.2.1 7.6 0 10.3-.2 4.5-.6 6.1-1.2c1.6-.6 3-1.5 4.4-2.9s2.2-2.8 2.9-4.4c.6-1.6 1-3.4 1.2-6.1.1-2.6.1-3.5.1-10.2s0-7.6-.2-10.3-.6-4.5-1.2-6.1c-.6-1.6-1.5-3-2.9-4.4-1.4-1.4-2.8-2.2-4.4-2.9-1.6-.6-3.4-1-6.1-1.2S31.7 0 25 0s-7.7 0-10.4.2m.3 45.2c-2.4-.1-3.8-.5-4.6-.9-1.2-.5-2-1-2.9-1.9S6 40.9 5.5 39.8c-.3-.9-.8-2.2-.9-4.6-.1-2.7-.1-3.5-.1-10.2s0-7.5.1-10.1c.1-2.4.5-3.8.9-4.6.5-1.2 1-2 1.9-2.9S9.1 6 10.2 5.5c.9-.3 2.2-.8 4.6-.9 2.6-.1 3.4-.2 10.1-.2s7.5 0 10.1.1c2.4.1 3.8.5 4.6.9 1.2.5 2 1 2.9 1.9s1.4 1.7 1.9 2.9c.3.9.8 2.2.9 4.6.1 2.6.2 3.4.2 10.1s0 7.5-.1 10.1c-.1 2.4-.5 3.8-.9 4.6-.5 1.2-1 2-1.9 2.9-.9.9-1.7 1.4-2.9 1.9-.9.3-2.2.8-4.6.9-2.6.1-3.4.1-10.1.2s-7.4 0-10.1-.1m20.4-33.8c0 1.7 1.3 3 3 3s3-1.3 3-3-1.3-3-3-3c-1.6 0-3 1.4-3 3M12.2 25c0 7.1 5.8 12.8 12.9 12.8 7.1 0 12.8-5.8 12.8-12.9S32.1 12.1 25 12.2 12.2 17.9 12.2 25m4.5 0c0-4.6 3.7-8.3 8.3-8.3 4.6 0 8.3 3.7 8.3 8.3 0 4.6-3.7 8.3-8.3 8.3-4.6 0-8.3-3.7-8.3-8.3" style="fill:#fff"/></svg>