<svg xmlns="http://www.w3.org/2000/svg" viewBox="0 0 50 50" style="enable-background:new 0 0 50 50" xml:space="preserve"><path d="M37.5 0h-25C5.6 0 0 5.6 0 12.5v25C0 44.4 5.6 50 12.5 50h25C44.4 50 50 44.4 50 37.5v-25C50 5.6 44.4 0 37.5 0zm0 18.6c0 .4-.1.7-.2 1.1l-.2.8h-5.7l.1-.6c.1-.4.1-.8.1-1.2 0-1-.4-2.1-1.2-2.7-.8-.7-2-1.1-3.7-1.1-.6 0-1.3.1-1.9.2-.6.1-1.2.4-1.7.7-.5.3-.9.7-1.2 1.1-.3.5-.4 1-.4 1.6 0 1 .5 1.9 1.3 2.4.9.6 2.2 1 4.1 1.3 2.7.4 4.8 1.2 6.3 2.5s2.3 3.2 2.3 5.6c0 1.5-.3 3-.9 4.4-.6 1.3-1.4 2.4-2.5 3.3-.3.2-.6.4-.9.7l-12.5 1.6-.4-.1c-1.2-.4-2.4-1.1-3.3-1.9-.9-.8-1.5-1.8-2-2.9-.4-1.1-.7-2.3-.6-3.5v-1.1c0-.4.1-.8.2-1.2l.2-1h5.7l-.2.7c-.1.6-.2 1.2-.2 1.9-.1 1.2.4 2.4 1.3 3.2.9.8 2.2 1.2 4 1.2 1.9 0 3.4-.4 4.5-1.2 1.1-.7 1.7-2 1.6-3.3 0-1-.5-2-1.4-2.5-.9-.6-2.4-1.1-4.6-1.4-1-.1-2-.4-3-.8s-1.8-.9-2.6-1.5c-.8-.7-1.4-1.5-1.8-2.4-.5-1.1-.7-2.3-.7-3.5 0-1.3.2-2.6.8-3.8.5-1.2 1.3-2.2 2.2-3 1.1-.9 2.3-1.6 3.7-2 1.6-.5 3.3-.7 5-.7 1.5 0 2.9.2 4.3.6 1.2.3 2.3.9 3.2 1.7.9.7 1.5 1.6 2 2.6s.7 2.1.7 3.2c.2.4.2.7.2 1z" style="fill:#fff"/></svg>