<svg version="1.1" id="Layer_1" xmlns="http://www.w3.org/2000/svg" x="0" y="0" viewBox="0 0 50 50" style="enable-background:new 0 0 50 50" xml:space="preserve"><style>.st0{fill-rule:evenodd;clip-rule:evenodd;fill:#fff}</style><path class="st0" d="M52.4 105.5v.1zM39.1 21.9c0 1.3-4.7 2.4-10.9 2.7-.2 0-1.1.1-3.1.1-1.6 0-2.8 0-3.2-.1-3.1-.1-5.9-.5-7.8-.9-2-.5-3.1-1.1-3.1-1.7 0-1.3 4.7-2.4 10.9-2.7v4.3c.4 0 1.6.1 3.2.1 1.9 0 2.9-.1 3.1-.1v-4.3c6.2.2 10.9 1.3 10.9 2.6z"/><path class="st0" d="M50 22.6 40.8 3.5c-.1-.1-.2-.2-.3-.2h-31c-.1 0-.3.1-.3.2L0 22.6c0 .2 0 .3.1.4l24.6 23.6c.1.1.4.1.5 0L49.8 23c.2-.1.2-.2.2-.4zm-21.8 3v12.2h-6.3V25.6c-7.1-.3-12.4-1.7-12.4-3.4s5.3-3.1 12.4-3.4V15h-8.7V9.2h23.7V15h-8.7v3.8c7.1.3 12.4 1.7 12.4 3.4s-5.4 3.1-12.4 3.4zM52.4 105.5z"/></svg>