<svg xmlns="http://www.w3.org/2000/svg" viewBox="0 0 50 50" style="enable-background:new 0 0 50 50" xml:space="preserve"><path d="M3.5 3.5C0 7 0 12.7 0 24v2c0 11.3 0 17 3.5 20.5S12.7 50 24 50h2c11.3 0 17 0 20.5-3.5S50 37.3 50 26v-2c0-11.3 0-17-3.5-20.5S37.3 0 26 0h-2C12.7 0 7 0 3.5 3.5zm4.9 11.7c.3 13 6.8 20.8 18.2 20.8h.6v-7.4c4.2.4 7.4 3.5 8.6 7.4h5.9c-1.6-5.9-5.9-9.2-8.6-10.4 2.7-1.5 6.4-5.3 7.3-10.4H35c-1.2 4.1-4.6 7.9-7.9 8.2v-8.2h-5.4v14.4c-3.3-.8-7.5-4.9-7.7-14.4H8.4z" style="fill-rule:evenodd;clip-rule:evenodd;fill:#fff"/></svg>