<svg width="40" height="40" viewBox="0 0 40 40" fill="none" xmlns="http://www.w3.org/2000/svg">
<path d="M20 40C17.0546 40 14.359 39.5135 11.9132 38.5404C9.49376 37.5674 7.38988 36.1867 5.60158 34.3984C3.81328 32.6101 2.43261 30.5062 1.45957 28.0868C0.486522 25.641 0 22.9454 0 20C0 17.0809 0.486522 14.3984 1.45957 11.9527C2.43261 9.5069 3.81328 7.38987 5.60158 5.60158C7.38988 3.81328 9.49376 2.43261 11.9132 1.45957C14.359 0.486522 17.0546 0 20 0C22.9191 0 25.6016 0.486522 28.0473 1.45957C30.4931 2.43261 32.6101 3.81328 34.3984 5.60158C36.1867 7.38987 37.5674 9.5069 38.5404 11.9527C39.5135 14.3984 40 17.0809 40 20C40 22.4458 39.6581 24.6022 38.9744 26.4694C38.3169 28.3103 37.4096 29.7567 36.2525 30.8087C35.0953 31.8869 33.741 32.426 32.1894 32.426C30.8218 32.426 29.691 32.0184 28.7968 31.2032C27.929 30.4142 27.4951 29.3754 27.4951 28.0868V26.4694C26.9954 27.3373 26.3248 28.1131 25.4832 28.7968C24.6417 29.4543 23.7212 29.9671 22.7219 30.3353C21.7489 30.7035 20.7627 30.8876 19.7633 30.8876C17.6857 30.8876 15.8448 30.4274 14.2406 29.5069C12.6364 28.5865 11.3872 27.311 10.4931 25.6805C9.59895 24.0237 9.15187 22.1302 9.15187 20C9.15187 17.8961 9.6121 16.0289 10.5325 14.3984C11.453 12.7679 12.7285 11.4793 14.359 10.5325C15.9895 9.5858 17.8698 9.11243 20 9.11243C22.1039 9.11243 23.9711 9.5858 25.6016 10.5325C27.2321 11.4793 28.5076 12.7679 29.428 14.3984C30.3748 16.0289 30.8481 17.8961 30.8481 20V26.6667C30.8481 27.4293 30.9796 28.021 31.2426 28.4418C31.5319 28.8363 31.9395 29.0335 32.4655 29.0335C33.2281 29.0335 33.9251 28.6522 34.5562 27.8895C35.1874 27.1006 35.6871 26.0355 36.0552 24.6943C36.4234 23.3268 36.6075 21.762 36.6075 20C36.6075 17.5805 36.1999 15.3583 35.3846 13.3333C34.5694 11.3083 33.4122 9.5595 31.9132 8.08678C30.4405 6.58777 28.6917 5.43064 26.6667 4.61538C24.6417 3.80013 22.4195 3.3925 20 3.3925C17.5542 3.3925 15.3189 3.80013 13.2939 4.61538C11.2689 5.43064 9.50691 6.58777 8.00789 8.08678C6.53518 9.5595 5.39119 11.3083 4.57594 13.3333C3.78698 15.3583 3.39251 17.5805 3.39251 20C3.39251 22.4458 3.78698 24.6811 4.57594 26.7061C5.39119 28.7311 6.53518 30.4799 8.00789 31.9527C9.50691 33.4517 11.2689 34.5957 13.2939 35.3846C15.3189 36.1999 17.5542 36.6075 20 36.6075C21.1045 36.6075 22.3011 36.476 23.5897 36.213C24.8784 35.9763 25.9566 35.6476 26.8245 35.2268C27.5608 34.8586 28.1657 34.806 28.6391 35.069C29.1124 35.332 29.3491 35.858 29.3491 36.6469C29.3491 37.2255 28.9546 37.7646 28.1657 38.2643C27.3767 38.7903 26.2722 39.211 24.8521 39.5266C23.432 39.8422 21.8146 40 20 40ZM20 27.4556C21.4464 27.4556 22.7219 27.14 23.8264 26.5089C24.9573 25.8777 25.8383 25.0099 26.4694 23.9053C27.1269 22.7745 27.4556 21.4727 27.4556 20C27.4556 18.5536 27.1269 17.2781 26.4694 16.1736C25.8383 15.0427 24.9573 14.1617 23.8264 13.5306C22.7219 12.8731 21.4464 12.5444 20 12.5444C18.5273 12.5444 17.2255 12.8731 16.0947 13.5306C14.9901 14.1617 14.1223 15.0427 13.4911 16.1736C12.86 17.2781 12.5444 18.5536 12.5444 20C12.5444 21.4727 12.86 22.7745 13.4911 23.9053C14.1223 25.0099 14.9901 25.8777 16.0947 26.5089C17.2255 27.14 18.5273 27.4556 20 27.4556Z" fill="#E3DBD7"/>
</svg>
