<svg width="29" height="40" viewBox="0 0 29 40" fill="none" xmlns="http://www.w3.org/2000/svg">
<g clip-path="url(#clip0_213_126)">
<path d="M26.9065 7.18116C25.6246 4.98365 23.8587 3.21779 21.6612 1.93591C19.4637 0.654022 17.0177 0 14.4147 0C11.8116 0 9.37868 0.654022 7.16809 1.93591C4.97057 3.21779 3.20471 4.98365 1.92283 7.18116C0.640945 9.37868 -0.0130768 11.8116 -0.0130768 14.4147V25.5199C-0.0130768 28.123 0.640945 30.5559 1.92283 32.7534C3.20471 34.9509 4.97057 36.7168 7.16809 38.0249C9.3656 39.3329 11.8116 39.9869 14.4147 39.9869C16.3113 39.9869 18.1687 39.6076 19.9346 38.8751C21.6874 38.1295 23.257 37.0831 24.5912 35.7489L25.1668 35.1733L22.7077 32.7142L22.1321 33.2897C21.1118 34.31 19.9215 35.1079 18.5873 35.6704C17.2662 36.2198 15.8535 36.5075 14.4016 36.5075C12.4264 36.5075 10.5821 36.0105 8.92087 35.0164C7.24657 34.0222 5.91236 32.675 4.93133 31.0007C3.96338 29.3394 3.46632 27.482 3.46632 25.5069V14.4016C3.46632 12.4264 3.96338 10.5821 4.93133 8.93394C5.91236 7.27273 7.24657 5.93852 8.92087 4.94441C10.5821 3.96337 12.4264 3.45324 14.4016 3.45324C16.3767 3.45324 18.2211 3.95029 19.8823 4.94441C21.5566 5.93852 22.8908 7.27273 23.8718 8.93394C24.4866 9.99346 24.9182 11.1184 25.1406 12.3218C24.6174 11.9032 24.0549 11.55 23.4402 11.2361C20.5101 9.79725 16.9653 9.91498 14.1923 11.537C12.7142 12.4133 11.5108 13.6037 10.6475 15.0818C9.7711 16.5729 9.33944 18.208 9.33944 19.9477C9.33944 21.6874 9.78418 23.3748 10.6475 24.8659C11.5108 26.344 12.7142 27.5474 14.1923 28.4107C17.0046 30.0589 20.5494 30.1635 23.4271 28.6854C24.1203 28.3322 24.7613 27.9006 25.3368 27.4166V29.274H28.8293V14.4016C28.8293 11.7986 28.1753 9.3656 26.8934 7.155L26.9065 7.18116ZM25.363 19.9738C25.363 21.1249 25.0752 22.1844 24.5258 23.1393C23.9634 24.0942 23.1916 24.8659 22.2368 25.4284C20.3401 26.5402 17.8679 26.5402 15.932 25.4284C14.964 24.8659 14.1923 24.1073 13.6298 23.1524C13.0674 22.1975 12.7927 21.138 12.7927 19.9869C12.7927 18.8358 13.0804 17.8156 13.6298 16.8476C14.1923 15.8797 14.964 15.1079 15.932 14.5455C16.8999 13.983 17.9595 13.7083 19.0713 13.7083C20.1831 13.7083 21.2819 13.9961 22.2368 14.5455C23.1916 15.1079 23.9634 15.8797 24.5128 16.8476C25.0752 17.8156 25.3499 18.8751 25.3499 19.9869L25.363 19.9738Z" fill="#E3DBD7"/>
</g>
<defs>
<clipPath id="clip0_213_126">
<rect width="28.8424" height="40" fill="white"/>
</clipPath>
</defs>
</svg>
