<svg xmlns="http://www.w3.org/2000/svg" width="40" height="40" fill="none"><g clip-path="url(#a)"><mask id="b" width="40" height="40" x="0" y="0" maskUnits="userSpaceOnUse" style="mask-type:luminance"><path fill="#fff" d="M40 0H0v40h40V0Z"/></mask><g mask="url(#b)"><path fill="#fff6f5" d="M19.18 40h1.665c9.041 0 13.563 0 16.371-2.808C40.024 34.384 40 29.864 40 20.845v-1.69c0-9.017 0-13.539-2.784-16.347C34.432 0 29.886 0 20.845 0h-1.666C10.136 0 5.616 0 2.808 2.808 0 5.616 0 10.134 0 19.155v1.69c0 9.019 0 13.539 2.808 16.347C5.616 40 10.136 40 19.179 40Z"/><path fill="#212121" d="M21.464 28.84c-9.02 0-14.493-6.258-14.705-16.656h4.567c.143 7.638 3.618 10.88 6.282 11.54v-11.54h4.38v6.59c2.569-.285 5.257-3.283 6.163-6.59h4.305c-.69 4.069-3.616 7.067-5.686 8.304 2.07 1 5.401 3.617 6.686 8.352h-4.734c-1-3.165-3.452-5.616-6.735-5.95v5.95h-.523Z"/></g></g><defs><clipPath id="a"><path fill="#fff" d="M0 0h40v40H0z"/></clipPath></defs></svg>