<svg xmlns="http://www.w3.org/2000/svg" data-name="Layer 2" viewBox="0 0 200 200"><g data-name="Layer 1"><path d="M100 60c22.06 0 40 17.94 40 40s-17.94 40-40 40-40-17.94-40-40 17.94-40 40-40m0-10c-27.61 0-50 22.39-50 50s22.39 50 50 50 50-22.39 50-50-22.39-50-50-50Z" style="fill:#0063a2;stroke-width:0"/><path d="M100 70c16.54 0 30 13.46 30 30s-13.46 30-30 30-30-13.46-30-30 13.46-30 30-30m0-10c-22.09 0-40 17.91-40 40s17.91 40 40 40 40-17.91 40-40-17.91-40-40-40Z" style="fill:#51478f;stroke-width:0"/><path d="M100 50c27.57 0 50 22.43 50 50s-22.43 50-50 50-50-22.43-50-50 22.43-50 50-50m0-10c-33.14 0-60 26.86-60 60s26.86 60 60 60 60-26.86 60-60-26.86-60-60-60Z" style="stroke-width:0;fill:#2599cb"/><path d="M100 40c33.08 0 60 26.92 60 60s-26.92 60-60 60-60-26.92-60-60 26.92-60 60-60m0-10c-38.66 0-70 31.34-70 70s31.34 70 70 70 70-31.34 70-70-31.34-70-70-70Z" style="fill:#90be6d;stroke-width:0"/><path d="M100 30c38.6 0 70 31.4 70 70s-31.4 70-70 70-70-31.4-70-70 31.4-70 70-70m0-10c-44.18 0-80 35.82-80 80s35.82 80 80 80 80-35.82 80-80-35.82-80-80-80Z" style="fill:#f9c750;stroke-width:0"/><path d="M100 20c44.11 0 80 35.89 80 80s-35.89 80-80 80-80-35.89-80-80 35.89-80 80-80m0-10c-49.71 0-90 40.29-90 90s40.29 90 90 90 90-40.29 90-90-40.29-90-90-90Z" style="fill:#f89621;stroke-width:0"/><path d="M100 10c49.63 0 90 40.37 90 90s-40.37 90-90 90-90-40.37-90-90 40.37-90 90-90m0-10C44.77 0 0 44.77 0 100s44.77 100 100 100 100-44.77 100-100S155.23 0 100 0Z" style="fill:#ef4347;stroke-width:0"/></g></svg>