<svg width="41" height="40" viewBox="0 0 41 40" fill="none" xmlns="http://www.w3.org/2000/svg">
<g clip-path="url(#clip0_349_67)">
<mask id="mask0_349_67" style="mask-type:luminance" maskUnits="userSpaceOnUse" x="0" y="0" width="41" height="40">
<path d="M40.2271 0H0.227051V40H40.2271V0Z" fill="white"/>
</mask>
<g mask="url(#mask0_349_67)">
<mask id="mask1_349_67" style="mask-type:luminance" maskUnits="userSpaceOnUse" x="0" y="0" width="41" height="40">
<path d="M0.227051 0H40.2271V40H0.227051V0Z" fill="white"/>
</mask>
<g mask="url(#mask1_349_67)">
<path d="M21.784 40.0001C9.89705 40.0001 0.227051 30.3141 0.227051 18.4101C0.227051 16.3201 0.452051 13.0521 1.51705 9.34814L1.52505 9.31114L5.92205 10.5791L5.91305 10.6151C5.18546 13.1485 4.81192 15.7703 4.80305 18.4061C4.80305 27.7851 12.4211 35.4121 21.7831 35.4121C26.9381 35.4121 31.6301 33.3051 34.0301 29.9141C35.2081 28.2461 36.3561 25.5201 35.1201 22.0001C34.9682 21.5811 34.7753 21.1781 34.5441 20.7971C32.4761 25.9691 27.486 28.9751 23.128 29.6401C20.7351 30.0061 17.0791 29.5661 14.6821 27.1171C13.3621 25.7691 11.9411 23.2891 12.6581 19.1201C13.3531 15.0831 17.3041 12.2651 22.9721 11.7631C25.5901 11.5331 28.4891 11.8401 31.1501 12.7751C31.0981 10.0951 30.4891 8.01514 29.3441 6.65814C28.1941 5.29514 26.4421 4.61514 23.9991 4.57814C19.184 4.49814 17.0821 8.17814 16.996 8.33514L12.9751 6.14514C13.1101 5.89214 16.3691 -0.00585938 23.8551 -0.00585938H24.0671C27.8611 0.0491406 30.812 1.29514 32.8391 3.69514C35.0891 6.35714 36.0331 10.2281 35.6521 15.2251C37.3101 16.5571 38.6491 18.2861 39.43 20.4591C40.9071 24.6681 40.313 28.9571 37.7621 32.5601C34.4701 37.2151 28.4951 39.9941 21.7811 39.9941L21.784 40.0001ZM24.6821 16.2771C24.2421 16.2771 23.8051 16.2951 23.3751 16.3351C20.5501 16.5851 17.535 17.7851 17.1691 19.9051C16.858 21.7141 17.1191 23.0651 17.9501 23.9111C19.128 25.1141 21.2801 25.2891 22.4401 25.1111C25.864 24.5881 29.8491 22.0121 30.7501 17.5631C28.9131 16.6991 26.7601 16.2771 24.6821 16.2771Z" fill="#2E2C31"/>
</g>
</g>
</g>
<defs>
<clipPath id="clip0_349_67">
<rect width="40" height="40" fill="white" transform="translate(0.227051)"/>
</clipPath>
</defs>
</svg>
