<svg width="41" height="40" viewBox="0 0 41 40" fill="none" xmlns="http://www.w3.org/2000/svg">
<g clip-path="url(#clip0_349_104)">
<path d="M40.2271 20.073C40.2271 8.987 31.2731 0 20.2271 0C9.18105 0 0.227051 8.987 0.227051 20.073C0.227051 29.488 6.68405 37.387 15.3951 39.556V26.208H11.2711V20.074H15.3951V17.43C15.3951 10.598 18.476 7.431 25.159 7.431C26.4261 7.431 28.6131 7.681 29.5071 7.93V13.49C29.0351 13.44 28.215 13.416 27.1971 13.416C23.917 13.416 22.6501 14.662 22.6501 17.904V20.074H29.1831L28.0601 26.208H22.6501V40C32.5531 38.8 40.2271 30.337 40.2271 20.073Z" fill="#2E2C31"/>
</g>
<defs>
<clipPath id="clip0_349_104">
<rect width="40" height="40" fill="white" transform="translate(0.227051)"/>
</clipPath>
</defs>
</svg>
