<svg width="41" height="40" viewBox="0 0 41 40" fill="none" xmlns="http://www.w3.org/2000/svg">
<g clip-path="url(#clip0_349_81)">
<mask id="mask0_349_81" style="mask-type:luminance" maskUnits="userSpaceOnUse" x="0" y="0" width="41" height="40">
<path d="M0.227051 0H40.2271V40H0.227051V0Z" fill="white"/>
</mask>
<g mask="url(#mask0_349_81)">
<path fill-rule="evenodd" clip-rule="evenodd" d="M20.1671 0C9.14105 0 0.227051 9.167 0.227051 20.507C0.227051 29.572 5.93805 37.245 13.8621 39.961C14.8521 40.165 15.2151 39.52 15.2151 38.977C15.2151 38.502 15.1831 36.872 15.1831 35.174C9.63605 36.397 8.48005 32.73 8.48005 32.73C7.58905 30.353 6.26805 29.742 6.26805 29.742C4.45305 28.486 6.40005 28.486 6.40005 28.486C8.41405 28.622 9.47105 30.591 9.47105 30.591C11.2541 33.714 14.1261 32.831 15.2811 32.288C15.4461 30.964 15.9751 30.048 16.5361 29.538C12.1121 29.063 7.45705 27.298 7.45705 19.42C7.45705 17.18 8.24905 15.346 9.50405 13.92C9.30605 13.411 8.61205 11.306 9.70205 8.488C9.70205 8.488 11.3861 7.945 15.1821 10.593C16.8058 10.144 18.4824 9.91533 20.1671 9.913C21.8511 9.913 23.5671 10.152 25.1521 10.593C28.9491 7.945 30.6321 8.488 30.6321 8.488C31.7221 11.306 31.0291 13.411 30.8311 13.92C32.1181 15.346 32.8781 17.18 32.8781 19.42C32.8781 27.297 28.223 29.029 23.7661 29.538C24.4921 30.183 25.1191 31.405 25.1191 33.341C25.1191 36.091 25.0871 38.298 25.0871 38.977C25.0871 39.52 25.4501 40.165 26.4401 39.962C34.363 37.245 40.0751 29.572 40.0751 20.507C40.1071 9.167 31.1611 0 20.1671 0Z" fill="#2E2C31"/>
</g>
</g>
<defs>
<clipPath id="clip0_349_81">
<rect width="40" height="40" fill="white" transform="translate(0.227051)"/>
</clipPath>
</defs>
</svg>
