<svg width="41" height="40" viewBox="0 0 41 40" fill="none" xmlns="http://www.w3.org/2000/svg">
<g clip-path="url(#clip0_349_118)">
<mask id="mask0_349_118" style="mask-type:luminance" maskUnits="userSpaceOnUse" x="0" y="0" width="41" height="40">
<path d="M0.227051 0H40.2271V40H0.227051V0Z" fill="white"/>
</mask>
<g mask="url(#mask0_349_118)">
<path d="M11.9441 0.140087C9.81607 0.240087 8.36307 0.580087 7.09207 1.08009C5.75844 1.5839 4.55096 2.37296 3.55407 3.39209C2.53866 4.39237 1.75373 5.60218 1.25407 6.93709C0.761073 8.21009 0.427074 9.66409 0.334074 11.7941C0.240074 13.9231 0.219074 14.6071 0.229074 20.0381C0.239074 25.4701 0.264074 26.1511 0.367074 28.2841C0.469074 30.4121 0.807074 31.8641 1.30707 33.1351C1.81115 34.4686 2.60017 35.676 3.61907 36.6731C4.62002 37.6891 5.83095 38.4741 7.16707 38.9731C8.43907 39.4651 9.89407 39.8001 12.0231 39.8931C14.1511 39.9861 14.8371 40.0081 20.2661 39.9981C25.6961 39.9881 26.3791 39.9631 28.5131 39.8621C30.6461 39.7611 32.0911 39.4201 33.3631 38.9231C34.6962 38.4184 35.9033 37.6291 36.9001 36.6101C37.9156 35.6091 38.7005 34.3986 39.2001 33.0631C39.6921 31.7901 40.0271 30.3361 40.1201 28.2081C40.2131 26.0741 40.2351 25.3921 40.2241 19.9621C40.2141 14.5321 40.1891 13.8511 40.0881 11.7181C39.9871 9.58509 39.6481 8.13609 39.1491 6.86509C38.6444 5.53191 37.8554 4.32461 36.8371 3.32709C35.837 2.3105 34.6262 1.52541 33.2901 1.02709C32.0171 0.536087 30.5631 0.200087 28.4341 0.108087C26.3051 0.0170874 25.6201 -0.00691265 20.1891 0.00308735C14.7571 0.0130874 14.0771 0.0370874 11.9441 0.141087V0.140087ZM12.1771 36.2951C10.2271 36.2111 9.16907 35.8861 8.46307 35.6151C7.59412 35.2955 6.80737 34.7861 6.16007 34.1241C5.45707 33.4271 5.02507 32.7591 4.66007 31.8271C4.38607 31.1211 4.05607 30.0641 3.96507 28.1141C3.86507 26.0061 3.84507 25.3741 3.83307 20.0341C3.82107 14.6941 3.84207 14.0621 3.93407 11.9541C4.01707 10.0051 4.34407 8.94509 4.61407 8.24009C4.97407 7.30409 5.40807 6.64009 6.10607 5.93709C6.80407 5.23409 7.47007 4.80209 8.40307 4.43709C9.10807 4.16209 10.1651 3.83409 12.1151 3.74209C14.2241 3.64209 14.8551 3.62209 20.1951 3.61009C25.5331 3.59809 26.1671 3.61809 28.2771 3.71109C30.2251 3.79609 31.2861 4.11909 31.9901 4.39109C32.9251 4.75109 33.5901 5.18409 34.2931 5.88309C34.9961 6.58309 35.4291 7.24609 35.7931 8.18109C36.0691 8.88409 36.3971 9.94109 36.4891 11.8911C36.5891 14.0011 36.6121 14.6331 36.6211 19.9711C36.6311 25.3101 36.6121 25.9441 36.5201 28.0511C36.4351 30.0011 36.1111 31.0611 35.8401 31.7671C35.4801 32.7011 35.0461 33.3671 34.3471 34.0691C33.6491 34.7721 32.9841 35.2051 32.0501 35.5691C31.3461 35.8441 30.2871 36.1721 28.3401 36.2651C26.2301 36.3651 25.5991 36.3851 20.2581 36.3971C14.9171 36.4081 14.2871 36.3871 12.1781 36.2951M28.4821 9.31109C28.4826 9.62626 28.5452 9.93824 28.6663 10.2292C28.7874 10.5202 28.9646 10.7845 29.1878 11.007C29.4111 11.2295 29.6759 11.4058 29.9673 11.5259C30.2587 11.6461 30.5709 11.7076 30.8861 11.7071C31.2012 11.7066 31.5132 11.644 31.8042 11.5229C32.0952 11.4018 32.3595 11.2245 32.582 11.0013C32.8044 10.7781 32.9808 10.5132 33.1009 10.2218C33.221 9.93045 33.2826 9.61826 33.2821 9.30309C33.281 8.66657 33.0271 8.05654 32.5763 7.6072C32.1255 7.15787 31.5146 6.90603 30.8781 6.90709C30.2416 6.90815 29.6315 7.16202 29.1822 7.61286C28.7329 8.0637 28.481 8.67457 28.4821 9.31109ZM9.95707 20.0201C9.96807 25.6911 14.5741 30.2791 20.2451 30.2681C25.9161 30.2581 30.5071 25.6511 30.4961 19.9791C30.4861 14.3071 25.8781 9.71909 20.2061 9.72909C14.5341 9.74109 9.94607 14.3481 9.95607 20.0191L9.95707 20.0201ZM13.5591 20.0121C13.5573 19.1366 13.728 18.2693 14.0614 17.4597C14.3948 16.6502 14.8844 15.9142 15.5022 15.2939C16.75 14.041 18.4444 13.3352 20.2126 13.3316C21.9808 13.328 23.678 14.027 24.9308 15.2748C26.1836 16.5225 26.8895 18.2169 26.8931 19.9851C26.8948 20.8606 26.7242 21.7279 26.3907 22.5375C26.0573 23.347 25.5677 24.083 24.9499 24.7033C23.7021 25.9562 22.0078 26.662 20.2396 26.6656C18.4714 26.6692 16.7742 25.9702 15.5213 24.7224C14.2685 23.4746 13.5627 21.7803 13.5591 20.0121Z" fill="#2E2C31"/>
</g>
</g>
<defs>
<clipPath id="clip0_349_118">
<rect width="40" height="40" fill="white" transform="translate(0.227051)"/>
</clipPath>
</defs>
</svg>
